<svg width="24" height="24" viewBox="0 0 24 24" fill="none" xmlns="http://www.w3.org/2000/svg">
<path d="M10.174 15.6057L5.63693 16.74C4.01144 17.1464 2.87109 18.6069 2.87109 20.2824V22.9999H21.1284V20.2824C21.1284 18.6069 19.988 17.1464 18.3625 16.74L13.8255 15.6057" stroke="currentColor" stroke-miterlimit="10" stroke-linecap="round" stroke-linejoin="round"/>
<path d="M10.1738 14.2656V16.5187C10.1738 17.527 10.9913 18.3444 11.9996 18.3444C13.0079 18.3444 13.8253 17.527 13.8253 16.5187V14.2656" stroke="currentColor" stroke-miterlimit="10" stroke-linecap="round" stroke-linejoin="round"/>
<path d="M12.0508 2.80596C12.2697 1.77383 13.1838 1 14.2816 1" stroke="currentColor" stroke-miterlimit="10" stroke-linecap="round" stroke-linejoin="round"/>
<path d="M15.3966 3.28225H14.7055C13.8219 3.28225 12.9452 3.12779 12.1147 2.82582C11.2843 2.52384 10.4075 2.36938 9.52393 2.36938H9.19927C7.72143 2.36938 6.52344 3.56738 6.52344 5.04521C6.52344 5.93987 6.97056 6.77536 7.715 7.27164L7.89273 7.39013H16.1085L16.5511 7.09509C17.13 6.70914 17.4778 6.05931 17.4778 5.36344C17.4778 4.21405 16.546 3.28225 15.3966 3.28225Z" stroke="currentColor" stroke-miterlimit="10" stroke-linecap="round" stroke-linejoin="round"/>
<path d="M17.9336 23V21.083" stroke="currentColor" stroke-miterlimit="10" stroke-linecap="round" stroke-linejoin="round"/>
<path d="M6.06641 23V21.083" stroke="currentColor" stroke-miterlimit="10" stroke-linecap="round" stroke-linejoin="round"/>
<path d="M16.1083 7.39014H7.89258V10.5852C7.89258 12.8539 9.73172 14.693 12.0005 14.693C14.2692 14.693 16.1083 12.8539 16.1083 10.5852V7.39014Z" stroke="currentColor" stroke-miterlimit="10" stroke-linecap="round" stroke-linejoin="round"/>
</svg>
