<svg width="24" height="24" viewBox="0 0 24 24" fill="none" xmlns="http://www.w3.org/2000/svg">
<g clip-path="url(#clip0_3363_5749)">
<mask id="mask0_3363_5749" style="mask-type:luminance" maskUnits="userSpaceOnUse" x="1" y="1" width="22" height="22">
<path d="M1 0.999998H23V23H1V0.999998Z" fill="white"/>
</mask>
<g mask="url(#mask0_3363_5749)">
<path d="M9.54688 17.1544C10.1354 20.1198 12.7512 22.3555 15.8895 22.3555C17.1871 22.3555 18.3952 21.973 19.4079 21.3151L22.0454 22.0446L21.3159 19.407C21.9738 18.3944 22.3563 17.1863 22.3563 15.8887C22.3563 12.7504 20.1207 10.1346 17.1552 9.54605" stroke="currentColor" stroke-miterlimit="10"/>
<path d="M9.40039 1.64453C5.11697 1.64453 1.64453 5.11696 1.64453 9.40039C1.64453 10.936 2.09093 12.3673 2.86085 13.5718L1.95541 16.8454L5.22894 15.9399C6.43348 16.7099 7.86477 17.1562 9.40039 17.1562C13.6838 17.1562 17.1563 13.6838 17.1563 9.40039C17.1563 5.11696 13.6838 1.64453 9.40039 1.64453Z" stroke="currentColor" stroke-miterlimit="10"/>
<path d="M10.0449 13.9336H8.75586V12.6445H10.0449V13.9336Z" fill="currentColor"/>
<path d="M7.4668 7.44531C7.4668 6.37741 8.33249 5.51172 9.40039 5.51172C10.4683 5.51172 11.334 6.37741 11.334 7.44531C11.334 8.01035 11.0915 8.51871 10.7051 8.87222L9.40039 10.0664V11.3555" stroke="currentColor" stroke-miterlimit="10"/>
</g>
</g>
<defs>
<clipPath id="clip0_3363_5749">
<rect width="24" height="24" fill="white"/>
</clipPath>
</defs>
</svg>
