<svg width="24" height="24" viewBox="0 0 24 24" fill="none" xmlns="http://www.w3.org/2000/svg">
<path d="M21.8526 21.1465L18.6584 17.9524C19.2826 17.1483 19.5769 16.1366 19.4814 15.1232C19.3859 14.1098 18.9078 13.1708 18.1444 12.4975C17.381 11.8242 16.3897 11.4672 15.3723 11.499C14.3549 11.5309 13.3879 11.9493 12.6681 12.6691C11.9483 13.3888 11.5299 14.3559 11.4981 15.3733C11.4662 16.3907 11.8232 17.382 12.4965 18.1454C13.1699 18.9088 14.1088 19.3869 15.1222 19.4824C16.1356 19.5779 17.1473 19.2836 17.9514 18.6594L21.1455 21.8535C21.192 21.9 21.2471 21.9368 21.3077 21.9619C21.3684 21.987 21.4334 22 21.499 22C21.5647 22 21.6297 21.987 21.6904 21.9619C21.751 21.9368 21.8061 21.9 21.8526 21.8535C21.899 21.8071 21.9358 21.752 21.9609 21.6913C21.986 21.6307 21.999 21.5657 21.999 21.5C21.999 21.4344 21.986 21.3694 21.9609 21.3087C21.9358 21.248 21.899 21.1929 21.8526 21.1465ZM13.3776 17.6215C12.8868 17.1307 12.5813 16.485 12.5133 15.7942C12.4453 15.1035 12.6188 14.4106 13.0044 13.8335C13.39 13.2564 13.9638 12.8308 14.628 12.6294C15.2922 12.4279 16.0057 12.4629 16.6469 12.7285C17.2881 12.9941 17.8174 13.4739 18.1446 14.086C18.4718 14.6981 18.5766 15.4047 18.4412 16.0854C18.3058 16.7662 17.9386 17.3789 17.4021 17.8192C16.8655 18.2595 16.1929 18.5002 15.4989 18.5002C15.1048 18.5012 14.7144 18.4241 14.3503 18.2732C13.9862 18.1224 13.6556 17.9008 13.3777 17.6214L13.3776 17.6215Z" fill="#1C1B1B"/>
<path d="M20.7031 5.84089L11.7031 2.04088C11.6392 2.01392 11.57 2 11.5 2C11.43 2 11.3608 2.01392 11.2969 2.04088L2.29686 5.84089C2.2085 5.87822 2.13343 5.9391 2.08075 6.01613C2.02806 6.09317 2.00001 6.18307 2 6.27494V16.725C2.00001 16.8169 2.02806 16.9067 2.08075 16.9838C2.13344 17.0608 2.20851 17.1216 2.29686 17.1589L11.2969 20.9589C11.3608 20.986 11.43 21 11.5 21C11.57 21 11.6392 20.986 11.7031 20.9589L12.8281 20.4839C12.9476 20.4317 13.0407 20.3369 13.0871 20.22C13.1335 20.1031 13.1296 19.9736 13.0761 19.8594C13.0227 19.7453 12.924 19.6557 12.8016 19.6102C12.6791 19.5646 12.5427 19.5667 12.4219 19.6161L11.5 20.0053L2.99998 16.4163V7.00588L11.2969 10.509C11.3608 10.536 11.43 10.55 11.5 10.55C11.57 10.55 11.6392 10.536 11.7031 10.509L20 7.00588V12.45C19.9994 12.5128 20.0118 12.575 20.0367 12.6332C20.0615 12.6913 20.0982 12.7443 20.1447 12.7889C20.1912 12.8334 20.2465 12.8688 20.3075 12.893C20.3685 12.9172 20.4339 12.9296 20.5 12.9296C20.5661 12.9296 20.6315 12.9172 20.6924 12.893C20.7534 12.8688 20.8088 12.8334 20.8553 12.7889C20.9017 12.7443 20.9385 12.6913 20.9633 12.6332C20.9882 12.575 21.0006 12.5128 21 12.45V6.27494C21 6.18307 20.9719 6.09317 20.9192 6.01613C20.8665 5.9391 20.7915 5.87822 20.7031 5.84089ZM11.5 2.9947L14.5003 4.26153L6.79686 7.51403C6.7764 7.52285 6.75659 7.53296 6.73756 7.54431L3.73123 6.27494L11.5 2.9947ZM11.5 9.55522L7.9625 8.06154L15.7031 4.79333C15.7125 4.78945 15.7208 4.78487 15.7296 4.78055L19.2688 6.27494L11.5 9.55522Z" fill="#1C1B1B"/>
</svg>
