<svg width="24" height="24" viewBox="0 0 24 24" fill="none" xmlns="http://www.w3.org/2000/svg">
<mask id="mask0_3363_5733" style="mask-type:luminance" maskUnits="userSpaceOnUse" x="1" y="1" width="22" height="22">
<path d="M1 0.999998H23V23H1V0.999998Z" fill="white"/>
</mask>
<g mask="url(#mask0_3363_5733)">
<path d="M14.0711 3.97692C14.8308 4.17298 15.5485 4.47398 16.2075 4.86371C16.2075 4.86371 16.525 4.54612 16.8816 4.18953C17.1405 3.93034 17.4918 3.78497 17.8581 3.78497C18.2239 3.78497 18.5754 3.93034 18.8343 4.18953C19.1484 4.50367 19.4963 4.85159 19.8104 5.16573C20.0697 5.42462 20.215 5.77602 20.215 6.1419C20.215 6.50816 20.0697 6.85952 19.8104 7.1184C19.4538 7.475 19.1363 7.79254 19.1363 7.79254C19.526 8.45151 19.827 9.16913 20.0231 9.9289H20.9747C21.7372 9.9289 22.3555 10.5471 22.3555 11.3096V12.6904C22.3555 13.4529 21.7372 14.0711 20.9747 14.0711H20.0231C19.827 14.8308 19.526 15.5485 19.1363 16.2074C19.1363 16.2074 19.4538 16.525 19.8104 16.8816C20.0697 17.1405 20.215 17.4918 20.215 17.8581C20.215 18.224 20.0697 18.5754 19.8104 18.8343C19.4963 19.1484 19.1484 19.4963 18.8343 19.8104C18.5754 20.0697 18.2239 20.215 17.8581 20.215C17.4918 20.215 17.1405 20.0697 16.8816 19.8104C16.525 19.4538 16.2075 19.1363 16.2075 19.1363C15.5485 19.526 14.8308 19.827 14.0711 20.023V20.9747C14.0711 21.7372 13.4529 22.3555 12.6903 22.3555H11.3096C10.5471 22.3555 9.92891 21.7372 9.92891 20.9747V20.023C9.16918 19.827 8.45151 19.526 7.79254 19.1363C7.79254 19.1363 7.475 19.4538 7.11841 19.8104C6.85952 20.0697 6.50812 20.215 6.1419 20.215C5.77602 20.215 5.42458 20.0697 5.16574 19.8104C4.85163 19.4963 4.50367 19.1484 4.18953 18.8343C3.93034 18.5754 3.78498 18.224 3.78498 17.8581C3.78498 17.4918 3.93034 17.1405 4.18953 16.8816C4.54613 16.525 4.86371 16.2074 4.86371 16.2074C4.47398 15.5485 4.17303 14.8308 3.97692 14.0711H3.02529C2.26277 14.0711 1.64453 13.4529 1.64453 12.6904V11.3096C1.64453 10.5471 2.26277 9.9289 3.02529 9.9289H3.97692C4.17303 9.16913 4.47398 8.45151 4.86371 7.79254C4.86371 7.79254 4.54613 7.475 4.18953 7.1184C3.93034 6.85952 3.78498 6.50816 3.78498 6.1419C3.78498 5.77602 3.93034 5.42462 4.18953 5.16573C4.50367 4.85159 4.85163 4.50367 5.16574 4.18953C5.42458 3.93034 5.77602 3.78497 6.1419 3.78497C6.50812 3.78497 6.85952 3.93034 7.11841 4.18953C7.475 4.54612 7.79254 4.86371 7.79254 4.86371C8.45151 4.47398 9.16918 4.17298 9.92891 3.97692V3.02524C9.92891 2.26272 10.5471 1.64453 11.3096 1.64453H12.6903C13.4529 1.64453 14.0711 2.26272 14.0711 3.02524V3.97692Z" stroke="currentColor" stroke-miterlimit="10" stroke-linecap="round" stroke-linejoin="round"/>
<path d="M11.9996 7.85771C14.2858 7.85771 16.1418 9.71375 16.1418 11.9999C16.1418 14.286 14.2858 16.1421 11.9996 16.1421C9.71346 16.1421 7.85742 14.286 7.85742 11.9999C7.85742 9.71375 9.71346 7.85771 11.9996 7.85771Z" stroke="currentColor" stroke-miterlimit="10" stroke-linecap="round" stroke-linejoin="round"/>
</g>
</svg>
