<svg width="17" height="17" viewBox="0 0 17 17" fill="none" xmlns="http://www.w3.org/2000/svg">
<g clip-path="url(#clip0_0_193)">
<rect width="17" height="17" rx="8.33333" fill="#1C1B1B"/>
<rect x="1" y="1" width="15.34" height="15.34" rx="7.5" fill="#1C1B1B"/>
<rect x="1" y="1" width="15.34" height="15.34" rx="7.5" stroke="#1C1B1B" stroke-width="2"/>
<path fill-rule="evenodd" clip-rule="evenodd" d="M12.3521 5.3393L7.17904 10.3318L5.80629 8.8651C5.55341 8.62668 5.15604 8.61223 4.86704 8.81453C4.58526 9.02405 4.50579 9.39253 4.67919 9.68875L6.30481 12.3331C6.46376 12.5788 6.73831 12.7305 7.04899 12.7305C7.34521 12.7305 7.62699 12.5788 7.78594 12.3331C8.04604 11.9935 13.0096 6.07625 13.0096 6.07625C13.6599 5.41155 12.8723 4.82633 12.3521 5.33208V5.3393Z" fill="white"/>
</g>
<defs>
<clipPath id="clip0_0_193">
<rect width="17" height="17" rx="8.33333" fill="white"/>
</clipPath>
</defs>
</svg>
