<svg width="20" height="20" viewBox="0 0 20 20" fill="none" xmlns="http://www.w3.org/2000/svg">
<g clip-path="url(#clip0_101_1217)">
<path d="M9.11914 8.04688H11.7664V18.9995H9.11914V8.04688Z" fill="black"/>
<path d="M3.97087 7.38556C1.78135 7.38556 0 9.1669 0 11.3564V19H2.64726V15.9346H5.29452V19.0001H7.94178V11.3565C7.94174 9.1669 6.16044 7.38556 3.97087 7.38556ZM5.29452 13.2873H2.64726V11.3564C2.64726 10.6266 3.24103 10.0328 3.97087 10.0328C4.70071 10.0328 5.29448 10.6266 5.29448 11.3564L5.29452 13.2873Z" fill="black"/>
<path d="M16.8551 4.14517L15.1349 1L13.4147 4.14517L10.2695 5.86535L13.4147 7.58553L15.1349 10.7307L16.8551 7.58553L20.0002 5.86535L16.8551 4.14517Z" fill="#E61282"/>
</g>
<defs>
<clipPath id="clip0_101_1217">
<rect width="20" height="20" fill="white"/>
</clipPath>
</defs>
</svg>
