<svg width="24" height="24" viewBox="0 0 24 24" fill="none" xmlns="http://www.w3.org/2000/svg">
<path d="M7.78037 5.41107L4.96619 6.58337" stroke="#707070" stroke-miterlimit="10" stroke-linecap="round" stroke-linejoin="round"/>
<path d="M13.4071 6.93485L10.5929 5.52823" stroke="#707070" stroke-miterlimit="10" stroke-linecap="round" stroke-linejoin="round"/>
<path d="M19.2576 3.93555L15.8936 6.7382" stroke="#707070" stroke-miterlimit="10" stroke-linecap="round" stroke-linejoin="round"/>
<path d="M4.96683 12.7939H2.15283V19.6149H4.96683V12.7939Z" stroke="#707070" stroke-miterlimit="10" stroke-linecap="round" stroke-linejoin="round"/>
<path d="M10.5935 10.4503H7.77954V19.6152H10.5935V10.4503Z" stroke="#707070" stroke-miterlimit="10" stroke-linecap="round" stroke-linejoin="round"/>
<path d="M16.2202 13.2627H13.4062V19.6149H16.2202V13.2627Z" stroke="#707070" stroke-miterlimit="10" stroke-linecap="round" stroke-linejoin="round"/>
<path d="M21.8468 8.5752H19.0328V19.6151H21.8468V8.5752Z" stroke="#707070" stroke-miterlimit="10" stroke-linecap="round" stroke-linejoin="round"/>
<path d="M23.2968 22.4551H0.703125" stroke="#707070" stroke-miterlimit="10" stroke-linecap="round" stroke-linejoin="round"/>
<path d="M3.55994 8.57544C4.33659 8.57544 4.96619 7.94584 4.96619 7.16919C4.96619 6.39254 4.33659 5.76294 3.55994 5.76294C2.78329 5.76294 2.15369 6.39254 2.15369 7.16919C2.15369 7.94584 2.78329 8.57544 3.55994 8.57544Z" stroke="#707070" stroke-miterlimit="10" stroke-linecap="round" stroke-linejoin="round"/>
<path d="M9.18665 6.23154C9.9633 6.23154 10.5929 5.60194 10.5929 4.82529C10.5929 4.04864 9.9633 3.41904 9.18665 3.41904C8.41 3.41904 7.7804 4.04864 7.7804 4.82529C7.7804 5.60194 8.41 6.23154 9.18665 6.23154Z" stroke="#707070" stroke-miterlimit="10" stroke-linecap="round" stroke-linejoin="round"/>
<path d="M20.4401 4.35645C21.2167 4.35645 21.8463 3.72685 21.8463 2.9502C21.8463 2.17354 21.2167 1.54395 20.4401 1.54395C19.6634 1.54395 19.0338 2.17354 19.0338 2.9502C19.0338 3.72685 19.6634 4.35645 20.4401 4.35645Z" stroke="#707070" stroke-miterlimit="10" stroke-linecap="round" stroke-linejoin="round"/>
<path d="M14.8134 9.04404C15.59 9.04404 16.2196 8.41444 16.2196 7.63779C16.2196 6.86114 15.59 6.23154 14.8134 6.23154C14.0367 6.23154 13.4071 6.86114 13.4071 7.63779C13.4071 8.41444 14.0367 9.04404 14.8134 9.04404Z" stroke="#707070" stroke-miterlimit="10" stroke-linecap="round" stroke-linejoin="round"/>
</svg>
