<svg width="24" height="24" viewBox="0 0 24 24" fill="none" xmlns="http://www.w3.org/2000/svg">
<path d="M3.00008 12.4999L19.7931 12.4999L13.6461 18.6459C13.5522 18.7397 13.4995 18.8671 13.4995 18.9999C13.4995 19.1326 13.5522 19.26 13.6461 19.3539C13.74 19.4477 13.8673 19.5005 14.0001 19.5005C14.1329 19.5005 14.2602 19.4477 14.3541 19.3539L21.3541 12.3539C21.4006 12.3074 21.4376 12.2522 21.4628 12.1915C21.488 12.1307 21.501 12.0656 21.501 11.9999C21.501 11.9341 21.488 11.869 21.4628 11.8082C21.4376 11.7475 21.4006 11.6923 21.3541 11.6459L14.3541 4.64586C14.2602 4.55197 14.1329 4.49923 14.0001 4.49923C13.8673 4.49923 13.74 4.55197 13.6461 4.64586C13.5522 4.73974 13.4995 4.86708 13.4995 4.99986C13.4995 5.13263 13.5522 5.25997 13.6461 5.35386L19.7931 11.4999L3.00008 11.4999C2.86747 11.4999 2.7403 11.5525 2.64653 11.6463C2.55276 11.7401 2.50008 11.8672 2.50008 11.9999C2.50008 12.1325 2.55276 12.2596 2.64653 12.3534C2.7403 12.4472 2.86747 12.4999 3.00008 12.4999Z" fill="#1C1B1B"/>
</svg>
