<svg width="24" height="24" viewBox="0 0 24 24" fill="none" xmlns="http://www.w3.org/2000/svg">
<path d="M20.3843 5.94094H15.9216L13.3968 3.3975C13.3968 3.02686 13.2495 2.6714 12.9875 2.40932C12.7254 2.14724 12.3699 2 11.9993 2C11.6286 2 11.2732 2.14724 11.0111 2.40932C10.749 2.6714 10.6018 3.02686 10.6018 3.3975L7.75088 5.94094H3.61429C3.24365 5.94094 2.8882 6.08818 2.62611 6.35026C2.36403 6.61234 2.2168 6.9678 2.2168 7.33844V20.3817C2.2168 20.7524 2.36403 21.1078 2.62611 21.3699C2.8882 21.632 3.24365 21.7792 3.61429 21.7792H20.3843C20.7549 21.7792 21.1104 21.632 21.3724 21.3699C21.6345 21.1078 21.7818 20.7524 21.7818 20.3817V7.33844C21.7818 6.9678 21.6345 6.61234 21.3724 6.35026C21.1104 6.08818 20.7549 5.94094 20.3843 5.94094ZM10.8626 4.41301C10.9884 4.59827 11.1579 4.74962 11.3562 4.85364C11.5545 4.95766 11.7754 5.01112 11.9993 5.00928C12.2165 5.01075 12.431 4.96088 12.6253 4.86374C12.8195 4.7666 12.9881 4.62493 13.1173 4.45028L14.5986 5.94094H9.14838L10.8626 4.41301ZM11.9993 3.14595C12.0914 3.14595 12.1815 3.17327 12.2581 3.22445C12.3347 3.27564 12.3944 3.34839 12.4296 3.43351C12.4649 3.51863 12.4741 3.6123 12.4562 3.70266C12.4382 3.79302 12.3938 3.87602 12.3287 3.94117C12.2635 4.00632 12.1805 4.05069 12.0902 4.06866C11.9998 4.08664 11.9061 4.07741 11.821 4.04215C11.7359 4.00689 11.6631 3.94719 11.6119 3.87058C11.5608 3.79398 11.5334 3.70391 11.5334 3.61178C11.5334 3.48823 11.5825 3.36975 11.6699 3.28239C11.7572 3.19503 11.8757 3.14595 11.9993 3.14595ZM3.61429 20.8476C3.49075 20.8476 3.37226 20.7985 3.2849 20.7111C3.19754 20.6238 3.14846 20.5053 3.14846 20.3817V17.7358L7.94653 12.975C8.03361 12.8897 8.15068 12.8418 8.27262 12.8418C8.39455 12.8418 8.51162 12.8897 8.5987 12.975L12.4651 16.8135L8.40305 20.8476H3.61429ZM20.8501 20.3817C20.8501 20.5053 20.801 20.6238 20.7136 20.7111C20.6263 20.7985 20.5078 20.8476 20.3843 20.8476H9.72601L13.1266 17.4749L13.7881 16.8135L16.7228 13.9067C16.8099 13.8213 16.927 13.7735 17.0489 13.7735C17.1708 13.7735 17.2879 13.8213 17.375 13.9067L20.8501 17.3538V20.3817ZM18.0551 13.2452C17.7896 12.9901 17.4357 12.8477 17.0675 12.8477C16.6994 12.8477 16.3455 12.9901 16.08 13.2452L13.1266 16.1892L9.26018 12.3135C8.99468 12.0585 8.64079 11.916 8.27262 11.916C7.90444 11.916 7.55055 12.0585 7.28505 12.3135L3.14846 16.4222V7.33844C3.14846 7.21489 3.19754 7.09641 3.2849 7.00904C3.37226 6.92168 3.49075 6.87261 3.61429 6.87261H20.3843C20.5078 6.87261 20.6263 6.92168 20.7136 7.00904C20.801 7.09641 20.8501 7.21489 20.8501 7.33844V16.0402L18.0551 13.2452ZM13.8626 8.73593C13.4019 8.73593 12.9516 8.87254 12.5686 9.12847C12.1856 9.3844 11.887 9.74816 11.7107 10.1738C11.5345 10.5994 11.4883 11.0677 11.5782 11.5195C11.6681 11.9713 11.8899 12.3863 12.2156 12.7121C12.5414 13.0378 12.9564 13.2596 13.4082 13.3495C13.86 13.4394 14.3283 13.3932 14.7539 13.217C15.1795 13.0407 15.5433 12.7421 15.7992 12.3591C16.0552 11.9761 16.1918 11.5258 16.1918 11.0651C16.1918 10.4474 15.9464 9.85493 15.5096 9.41813C15.0728 8.98133 14.4803 8.73593 13.8626 8.73593ZM13.8626 12.4626C13.5862 12.4626 13.316 12.3806 13.0862 12.2271C12.8564 12.0735 12.6773 11.8553 12.5715 11.5999C12.4657 11.3445 12.438 11.0635 12.492 10.7925C12.5459 10.5214 12.679 10.2724 12.8744 10.0769C13.0699 9.88147 13.3189 9.74837 13.59 9.69445C13.8611 9.64053 14.142 9.6682 14.3974 9.77398C14.6528 9.87975 14.871 10.0589 15.0246 10.2887C15.1781 10.5185 15.2601 10.7887 15.2601 11.0651C15.2601 11.4357 15.1129 11.7912 14.8508 12.0533C14.5887 12.3154 14.2332 12.4626 13.8626 12.4626Z" fill="currentColor"/>
</svg>
