<svg xmlns="http://www.w3.org/2000/svg" width="23" height="24" viewBox="0 0 23 24" fill="none">
  <mask id="path-1-inside-1_6558_8098" fill="white">
    <path d="M21.1954 4.59776H15.9889L13.0433 1.63041C13.0433 1.198 12.8715 0.783298 12.5658 0.477537C12.26 0.171775 11.8453 0 11.4129 0C10.9805 0 10.5658 0.171775 10.26 0.477537C9.95425 0.783298 9.78248 1.198 9.78248 1.63041L6.45644 4.59776H1.63041C1.198 4.59776 0.783299 4.76954 0.477537 5.0753C0.171775 5.38106 0 5.79576 0 6.22818V21.4454C0 21.8778 0.171775 22.2925 0.477537 22.5982C0.783299 22.904 1.198 23.0758 1.63041 23.0758H21.1954C21.6278 23.0758 22.0425 22.904 22.3482 22.5982C22.654 22.2925 22.8258 21.8778 22.8258 21.4454V6.22818C22.8258 5.79576 22.654 5.38106 22.3482 5.0753C22.0425 4.76954 21.6278 4.59776 21.1954 4.59776ZM10.0868 2.81518C10.2335 3.03132 10.4313 3.2079 10.6626 3.32925C10.894 3.4506 11.1517 3.51297 11.4129 3.51082C11.6663 3.51254 11.9165 3.45436 12.1432 3.34103C12.3699 3.22769 12.5665 3.06242 12.7172 2.85866L14.4455 4.59776H8.08685L10.0868 2.81518ZM11.4129 1.33694C11.5204 1.33694 11.6255 1.36881 11.7148 1.42853C11.8042 1.48825 11.8739 1.57313 11.915 1.67243C11.9561 1.77174 11.9669 1.88101 11.9459 1.98644C11.9249 2.09186 11.8732 2.1887 11.7972 2.2647C11.7212 2.34071 11.6243 2.39247 11.5189 2.41344C11.4135 2.43441 11.3042 2.42365 11.2049 2.38251C11.1056 2.34138 11.0207 2.27172 10.961 2.18235C10.9013 2.09297 10.8694 1.9879 10.8694 1.88041C10.8694 1.73627 10.9267 1.59804 11.0286 1.49612C11.1305 1.3942 11.2688 1.33694 11.4129 1.33694ZM1.63041 21.9888C1.48628 21.9888 1.34804 21.9316 1.24612 21.8297C1.1442 21.7277 1.08694 21.5895 1.08694 21.4454V18.3584L6.68469 12.8042C6.78628 12.7046 6.92287 12.6488 7.06512 12.6488C7.20738 12.6488 7.34396 12.7046 7.44555 12.8042L11.9564 17.2824L7.21729 21.9888H1.63041ZM21.7388 21.4454C21.7388 21.5895 21.6816 21.7277 21.5797 21.8297C21.4777 21.9316 21.3395 21.9888 21.1954 21.9888H8.76075L12.7281 18.0541L13.4998 17.2824L16.9237 13.8911C17.0253 13.7915 17.1619 13.7358 17.3041 13.7358C17.4464 13.7358 17.583 13.7915 17.6845 13.8911L21.7388 17.9128V21.4454ZM18.478 13.1194C18.1683 12.8218 17.7554 12.6556 17.3259 12.6556C16.8963 12.6556 16.4834 12.8218 16.1737 13.1194L12.7281 16.5541L8.21728 12.0324C7.90754 11.7349 7.49466 11.5687 7.06512 11.5687C6.63559 11.5687 6.22271 11.7349 5.91296 12.0324L1.08694 16.8259V6.22818C1.08694 6.08404 1.1442 5.94581 1.24612 5.84388C1.34804 5.74196 1.48628 5.68471 1.63041 5.68471H21.1954C21.3395 5.68471 21.4777 5.74196 21.5797 5.84388C21.6816 5.94581 21.7388 6.08404 21.7388 6.22818V16.3802L18.478 13.1194ZM13.5868 7.85859C13.0493 7.85859 12.524 8.01796 12.0771 8.31655C11.6302 8.61513 11.2819 9.03953 11.0763 9.53606C10.8706 10.0326 10.8168 10.579 10.9216 11.1061C11.0265 11.6332 11.2853 12.1174 11.6653 12.4974C12.0453 12.8774 12.5295 13.1362 13.0566 13.2411C13.5838 13.3459 14.1301 13.2921 14.6267 13.0865C15.1232 12.8808 15.5476 12.5325 15.8462 12.0856C16.1448 11.6388 16.3041 11.1134 16.3041 10.5759C16.3041 9.85526 16.0178 9.16409 15.5082 8.65448C14.9986 8.14488 14.3075 7.85859 13.5868 7.85859ZM13.5868 12.2064C13.2643 12.2064 12.9491 12.1107 12.681 11.9316C12.4128 11.7524 12.2039 11.4978 12.0805 11.1999C11.9571 10.902 11.9248 10.5741 11.9877 10.2579C12.0506 9.9416 12.2059 9.65108 12.4339 9.42307C12.6619 9.19505 12.9524 9.03977 13.2687 8.97686C13.585 8.91395 13.9128 8.94624 14.2107 9.06964C14.5086 9.19304 14.7633 9.40202 14.9424 9.67014C15.1216 9.93826 15.2172 10.2535 15.2172 10.5759C15.2172 11.0084 15.0454 11.4231 14.7397 11.7288C14.4339 12.0346 14.0192 12.2064 13.5868 12.2064Z"/>
  </mask>
  <path d="M21.1954 4.59776H15.9889L13.0433 1.63041C13.0433 1.198 12.8715 0.783298 12.5658 0.477537C12.26 0.171775 11.8453 0 11.4129 0C10.9805 0 10.5658 0.171775 10.26 0.477537C9.95425 0.783298 9.78248 1.198 9.78248 1.63041L6.45644 4.59776H1.63041C1.198 4.59776 0.783299 4.76954 0.477537 5.0753C0.171775 5.38106 0 5.79576 0 6.22818V21.4454C0 21.8778 0.171775 22.2925 0.477537 22.5982C0.783299 22.904 1.198 23.0758 1.63041 23.0758H21.1954C21.6278 23.0758 22.0425 22.904 22.3482 22.5982C22.654 22.2925 22.8258 21.8778 22.8258 21.4454V6.22818C22.8258 5.79576 22.654 5.38106 22.3482 5.0753C22.0425 4.76954 21.6278 4.59776 21.1954 4.59776ZM10.0868 2.81518C10.2335 3.03132 10.4313 3.2079 10.6626 3.32925C10.894 3.4506 11.1517 3.51297 11.4129 3.51082C11.6663 3.51254 11.9165 3.45436 12.1432 3.34103C12.3699 3.22769 12.5665 3.06242 12.7172 2.85866L14.4455 4.59776H8.08685L10.0868 2.81518ZM11.4129 1.33694C11.5204 1.33694 11.6255 1.36881 11.7148 1.42853C11.8042 1.48825 11.8739 1.57313 11.915 1.67243C11.9561 1.77174 11.9669 1.88101 11.9459 1.98644C11.9249 2.09186 11.8732 2.1887 11.7972 2.2647C11.7212 2.34071 11.6243 2.39247 11.5189 2.41344C11.4135 2.43441 11.3042 2.42365 11.2049 2.38251C11.1056 2.34138 11.0207 2.27172 10.961 2.18235C10.9013 2.09297 10.8694 1.9879 10.8694 1.88041C10.8694 1.73627 10.9267 1.59804 11.0286 1.49612C11.1305 1.3942 11.2688 1.33694 11.4129 1.33694ZM1.63041 21.9888C1.48628 21.9888 1.34804 21.9316 1.24612 21.8297C1.1442 21.7277 1.08694 21.5895 1.08694 21.4454V18.3584L6.68469 12.8042C6.78628 12.7046 6.92287 12.6488 7.06512 12.6488C7.20738 12.6488 7.34396 12.7046 7.44555 12.8042L11.9564 17.2824L7.21729 21.9888H1.63041ZM21.7388 21.4454C21.7388 21.5895 21.6816 21.7277 21.5797 21.8297C21.4777 21.9316 21.3395 21.9888 21.1954 21.9888H8.76075L12.7281 18.0541L13.4998 17.2824L16.9237 13.8911C17.0253 13.7915 17.1619 13.7358 17.3041 13.7358C17.4464 13.7358 17.583 13.7915 17.6845 13.8911L21.7388 17.9128V21.4454ZM18.478 13.1194C18.1683 12.8218 17.7554 12.6556 17.3259 12.6556C16.8963 12.6556 16.4834 12.8218 16.1737 13.1194L12.7281 16.5541L8.21728 12.0324C7.90754 11.7349 7.49466 11.5687 7.06512 11.5687C6.63559 11.5687 6.22271 11.7349 5.91296 12.0324L1.08694 16.8259V6.22818C1.08694 6.08404 1.1442 5.94581 1.24612 5.84388C1.34804 5.74196 1.48628 5.68471 1.63041 5.68471H21.1954C21.3395 5.68471 21.4777 5.74196 21.5797 5.84388C21.6816 5.94581 21.7388 6.08404 21.7388 6.22818V16.3802L18.478 13.1194ZM13.5868 7.85859C13.0493 7.85859 12.524 8.01796 12.0771 8.31655C11.6302 8.61513 11.2819 9.03953 11.0763 9.53606C10.8706 10.0326 10.8168 10.579 10.9216 11.1061C11.0265 11.6332 11.2853 12.1174 11.6653 12.4974C12.0453 12.8774 12.5295 13.1362 13.0566 13.2411C13.5838 13.3459 14.1301 13.2921 14.6267 13.0865C15.1232 12.8808 15.5476 12.5325 15.8462 12.0856C16.1448 11.6388 16.3041 11.1134 16.3041 10.5759C16.3041 9.85526 16.0178 9.16409 15.5082 8.65448C14.9986 8.14488 14.3075 7.85859 13.5868 7.85859ZM13.5868 12.2064C13.2643 12.2064 12.9491 12.1107 12.681 11.9316C12.4128 11.7524 12.2039 11.4978 12.0805 11.1999C11.9571 10.902 11.9248 10.5741 11.9877 10.2579C12.0506 9.9416 12.2059 9.65108 12.4339 9.42307C12.6619 9.19505 12.9524 9.03977 13.2687 8.97686C13.585 8.91395 13.9128 8.94624 14.2107 9.06964C14.5086 9.19304 14.7633 9.40202 14.9424 9.67014C15.1216 9.93826 15.2172 10.2535 15.2172 10.5759C15.2172 11.0084 15.0454 11.4231 14.7397 11.7288C14.4339 12.0346 14.0192 12.2064 13.5868 12.2064Z" fill="white"/>
  <path d="M15.9889 4.59776L1.45422 19.026L7.46168 25.0778H15.9889V4.59776ZM13.0433 1.63041L-7.4367 1.63041L-7.4367 10.0694L-1.49139 16.0586L13.0433 1.63041ZM9.78248 1.63041L23.4165 16.9125L30.2625 10.8049L30.2625 1.63041L9.78248 1.63041ZM6.45644 4.59776V25.0778H14.2643L20.0905 19.8799L6.45644 4.59776ZM0 6.22818H-20.48H0ZM10.0868 2.81518L27.032 -8.6866L13.9067 -28.0237L-3.53996 -12.4734L10.0868 2.81518ZM11.4129 3.51082L11.5515 -16.9687L11.3981 -16.9697L11.2447 -16.9685L11.4129 3.51082ZM12.7172 2.85866L27.2441 -11.5774L10.4317 -28.4956L-3.74957 -9.31817L12.7172 2.85866ZM14.4455 4.59776V25.0778H63.6702L28.9723 -9.83832L14.4455 4.59776ZM8.08685 4.59776L-5.53994 -10.6908L-45.6706 25.0778L8.08685 25.0778V4.59776ZM11.4129 1.33694V21.8169V1.33694ZM1.08694 18.3584L-13.338 3.82055L-19.3931 9.82854V18.3584H1.08694ZM6.68469 12.8042L-7.65131 -1.82147L-7.69593 -1.77773L-7.74029 -1.73372L6.68469 12.8042ZM7.44555 12.8042L21.8745 -1.72981L21.8282 -1.77579L21.7816 -1.82147L7.44555 12.8042ZM11.9564 17.2824L26.3878 31.8138L41.0225 17.2798L26.3853 2.74839L11.9564 17.2824ZM7.21729 21.9888V42.4688H15.659L21.6488 36.5203L7.21729 21.9888ZM8.76075 21.9888L-5.66091 7.44765L-40.9723 42.4688H8.76075V21.9888ZM12.7281 18.0541L27.1498 32.5953L27.1798 32.5655L27.2096 32.5357L12.7281 18.0541ZM13.4998 17.2824L-0.912273 2.7317L-0.947077 2.76618L-0.981717 2.80082L13.4998 17.2824ZM16.9237 13.8911L2.58769 -0.734529L2.54954 -0.697141L2.51159 -0.659553L16.9237 13.8911ZM17.3041 13.7358L17.3041 -6.74424L17.3041 13.7358ZM17.6845 13.8911L32.1075 -0.648784L32.0642 -0.691786L32.0205 -0.734529L17.6845 13.8911ZM21.7388 17.9128H42.2188V9.38123L36.1618 3.3729L21.7388 17.9128ZM18.478 13.1194L32.9596 -1.36216L32.8146 -1.50712L32.6668 -1.64914L18.478 13.1194ZM17.3259 12.6556L17.3259 33.1356L17.3259 12.6556ZM16.1737 13.1194L1.98494 -1.64914L1.84877 -1.51833L1.71504 -1.38502L16.1737 13.1194ZM12.7281 16.5541L-1.77087 31.0182L12.6878 45.5117L27.1867 31.0585L12.7281 16.5541ZM8.21728 12.0324L22.7162 -2.43166L22.5628 -2.58552L22.406 -2.73609L8.21728 12.0324ZM7.06512 11.5687V-8.91134V11.5687ZM5.91296 12.0324L-8.27579 -2.73609L-8.39859 -2.61811L-8.51941 -2.49811L5.91296 12.0324ZM1.08694 16.8259H-19.3931V66.0329L15.5193 31.3564L1.08694 16.8259ZM21.7388 16.3802L7.25729 30.8618L42.2188 65.8233V16.3802H21.7388ZM13.5868 7.85859L13.5868 -12.6214L13.5868 7.85859ZM16.3041 10.5759L36.7841 10.5759L16.3041 10.5759ZM13.5868 12.2064L13.5868 32.6864L13.5868 12.2064ZM15.2172 10.5759H35.6972H15.2172ZM21.1954 4.59776V-15.8822H15.9889V4.59776V25.0778H21.1954V4.59776ZM15.9889 4.59776L30.5236 -9.83044L27.578 -12.7978L13.0433 1.63041L-1.49139 16.0586L1.45422 19.026L15.9889 4.59776ZM13.0433 1.63041L33.5233 1.63041C33.5233 -4.23363 31.1938 -9.8575 27.0473 -14.004L12.5658 0.477537L-1.91578 14.9591C-5.45077 11.4241 -7.4367 6.62963 -7.4367 1.63041L13.0433 1.63041ZM12.5658 0.477537L27.0473 -14.004C22.9008 -18.1505 17.2769 -20.48 11.4129 -20.48V0V20.48C6.41368 20.48 1.61921 18.4941 -1.91578 14.9591L12.5658 0.477537ZM11.4129 0V-20.48C5.54885 -20.48 -0.0750209 -18.1505 -4.22153 -14.004L10.26 0.477537L24.7416 14.9591C21.2066 18.4941 16.4121 20.48 11.4129 20.48V0ZM10.26 0.477537L-4.22153 -14.004C-8.36804 -9.8575 -10.6975 -4.23363 -10.6975 1.63041L9.78248 1.63041L30.2625 1.63041C30.2625 6.62963 28.2765 11.4241 24.7416 14.9591L10.26 0.477537ZM9.78248 1.63041L-3.85157 -13.6517L-7.17761 -10.6844L6.45644 4.59776L20.0905 19.8799L23.4165 16.9125L9.78248 1.63041ZM6.45644 4.59776V-15.8822H1.63041V4.59776V25.0778H6.45644V4.59776ZM1.63041 4.59776V-15.8822C-4.23363 -15.8822 -9.8575 -13.5528 -14.004 -9.40625L0.477537 5.0753L14.9591 19.5568C11.4241 23.0918 6.62963 25.0778 1.63041 25.0778V4.59776ZM0.477537 5.0753L-14.004 -9.40625C-18.1505 -5.25974 -20.48 0.364131 -20.48 6.22818L0 6.22818L20.48 6.22818C20.48 11.2274 18.4941 16.0219 14.9591 19.5568L0.477537 5.0753ZM0 6.22818H-20.48V21.4454H0H20.48V6.22818H0ZM0 21.4454H-20.48C-20.48 27.3094 -18.1505 32.9333 -14.004 37.0798L0.477537 22.5982L14.9591 8.11669C18.4941 11.6517 20.48 16.4461 20.48 21.4454H0ZM0.477537 22.5982L-14.004 37.0798C-9.85752 41.2263 -4.23366 43.5558 1.63041 43.5558V23.0758V2.59578C6.62966 2.59578 11.4241 4.58173 14.9591 8.11669L0.477537 22.5982ZM1.63041 23.0758V43.5558H21.1954V23.0758V2.59578H1.63041V23.0758ZM21.1954 23.0758V43.5558C27.0595 43.5558 32.6833 41.2263 36.8298 37.0798L22.3482 22.5982L7.8667 8.11669C11.4017 4.58173 16.1961 2.59578 21.1954 2.59578V23.0758ZM22.3482 22.5982L36.8298 37.0798C40.9763 32.9333 43.3058 27.3094 43.3058 21.4454H22.8258H2.34578C2.34578 16.4461 4.33174 11.6516 7.8667 8.11669L22.3482 22.5982ZM22.8258 21.4454H43.3058V6.22818H22.8258H2.34578V21.4454H22.8258ZM22.8258 6.22818H43.3058C43.3058 0.364106 40.9763 -5.25976 36.8298 -9.40625L22.3482 5.0753L7.8667 19.5568C4.33173 16.0219 2.34578 11.2274 2.34578 6.22818H22.8258ZM22.3482 5.0753L36.8298 -9.40625C32.6833 -13.5528 27.0594 -15.8822 21.1954 -15.8822V4.59776V25.0778C16.1961 25.0778 11.4017 23.0918 7.8667 19.5568L22.3482 5.0753ZM10.0868 2.81518L-6.85837 14.317C-4.81836 17.3224 -2.06798 19.7778 1.14868 21.4653L10.6626 3.32925L20.1766 -14.8068C22.9306 -13.362 25.2854 -11.2598 27.032 -8.6866L10.0868 2.81518ZM10.6626 3.32925L1.14868 21.4653C4.36535 23.1527 7.94883 24.02 11.5811 23.9901L11.4129 3.51082L11.2447 -16.9685C14.3545 -16.994 17.4226 -16.2515 20.1766 -14.8068L10.6626 3.32925ZM11.4129 3.51082L11.2743 23.9904C14.7539 24.0139 18.1898 23.2151 21.3021 21.6589L12.1432 3.34103L2.98427 -14.9768C5.64326 -16.3063 8.57874 -16.9888 11.5515 -16.9687L11.4129 3.51082ZM12.1432 3.34103L21.3021 21.6589C24.4145 20.1027 27.1151 17.8333 29.184 15.0355L12.7172 2.85866L-3.74957 -9.31817C-1.98201 -11.7085 0.325267 -13.6473 2.98427 -14.9768L12.1432 3.34103ZM12.7172 2.85866L-1.80965 17.2947L-0.0814114 19.0338L14.4455 4.59776L28.9723 -9.83832L27.2441 -11.5774L12.7172 2.85866ZM14.4455 4.59776V-15.8822H8.08685V4.59776V25.0778H14.4455V4.59776ZM8.08685 4.59776L21.7136 19.8864L23.7136 18.1038L10.0868 2.81518L-3.53996 -12.4734L-5.53994 -10.6908L8.08685 4.59776ZM11.4129 1.33694V21.8169C7.46982 21.8169 3.6153 20.6477 0.33675 18.457L11.7148 1.42853L23.0929 -15.6C19.6356 -17.9101 15.5709 -19.1431 11.4129 -19.1431V1.33694ZM11.7148 1.42853L0.33675 18.457C-2.94181 16.2664 -5.49712 13.1527 -7.00606 9.50979L11.915 1.67243L30.836 -6.16492C29.2448 -10.0064 26.5502 -13.2899 23.0929 -15.6L11.7148 1.42853ZM11.915 1.67243L-7.00606 9.50979C-8.51501 5.86687 -8.90982 1.85829 -8.14056 -2.00901L11.9459 1.98644L32.0324 5.98189C32.8436 1.90373 32.4273 -2.32339 30.836 -6.16492L11.915 1.67243ZM11.9459 1.98644L-8.14056 -2.00901C-7.37132 -5.87628 -5.47257 -9.42864 -2.68436 -12.2168L11.7972 2.2647L26.2787 16.7462C29.2189 13.806 31.2212 10.06 32.0324 5.98189L11.9459 1.98644ZM11.7972 2.2647L-2.68436 -12.2168C0.103794 -15.005 3.65614 -16.9038 7.52347 -17.673L11.5189 2.41344L15.5144 22.4999C19.5925 21.6887 23.3386 19.6864 26.2787 16.7462L11.7972 2.2647ZM11.5189 2.41344L7.52347 -17.673C11.3908 -18.4423 15.3993 -18.0475 19.0423 -16.5385L11.2049 2.38251L3.36756 21.3036C7.2091 22.8948 11.4362 23.3111 15.5144 22.4999L11.5189 2.41344ZM11.2049 2.38251L19.0423 -16.5385C22.6852 -15.0296 25.7988 -12.4743 27.9895 -9.19573L10.961 2.18235L-6.06749 13.5604C-3.75738 17.0177 -0.47395 19.7124 3.36756 21.3036L11.2049 2.38251ZM10.961 2.18235L27.9895 -9.19573C30.1802 -5.91714 31.3494 -2.06261 31.3494 1.88041H10.8694H-9.61058C-9.61058 6.03841 -8.3776 10.1031 -6.06749 13.5604L10.961 2.18235ZM10.8694 1.88041H31.3494C31.3494 7.16787 29.249 12.2388 25.5101 15.9777L11.0286 1.49612L-3.45295 -12.9854C-7.39564 -9.04274 -9.61058 -3.69533 -9.61058 1.88041H10.8694ZM11.0286 1.49612L25.5101 15.9777C21.7713 19.7165 16.7004 21.8169 11.4129 21.8169L11.4129 1.33694L11.4129 -19.1431C5.83713 -19.1431 0.489723 -16.9281 -3.45295 -12.9854L11.0286 1.49612ZM1.63041 21.9888V1.50883C6.91787 1.50883 11.9888 3.60926 15.7277 7.34811L1.24612 21.8297L-13.2354 36.3112C-9.29273 40.2539 -3.94532 42.4688 1.63041 42.4688V21.9888ZM1.24612 21.8297L15.7277 7.34811C19.4665 11.0869 21.5669 16.1579 21.5669 21.4454H1.08694H-19.3931C-19.3931 27.0211 -17.1781 32.3685 -13.2354 36.3112L1.24612 21.8297ZM1.08694 21.4454H21.5669V18.3584H1.08694H-19.3931V21.4454H1.08694ZM1.08694 18.3584L15.5119 32.8963L21.1097 27.3421L6.68469 12.8042L-7.74029 -1.73372L-13.338 3.82055L1.08694 18.3584ZM6.68469 12.8042L21.0207 27.4298C17.294 31.0827 12.2836 33.1288 7.06512 33.1288V12.6488V-7.83118C1.56214 -7.83118 -3.72144 -5.67351 -7.65131 -1.82147L6.68469 12.8042ZM7.06512 12.6488V33.1288C1.84665 33.1288 -3.16376 31.0827 -6.89045 27.4298L7.44555 12.8042L21.7816 -1.82147C17.8517 -5.67351 12.5681 -7.83118 7.06512 -7.83118V12.6488ZM7.44555 12.8042L-6.98337 27.3382L-2.47256 31.8164L11.9564 17.2824L26.3853 2.74839L21.8745 -1.72981L7.44555 12.8042ZM11.9564 17.2824L-2.4751 2.75092L-7.21417 7.45738L7.21729 21.9888L21.6488 36.5203L26.3878 31.8138L11.9564 17.2824ZM7.21729 21.9888V1.50883H1.63041V21.9888V42.4688H7.21729V21.9888ZM21.7388 21.4454H1.25884C1.25884 16.1579 3.35925 11.087 7.09811 7.34811L21.5797 21.8297L36.0612 36.3112C40.0039 32.3685 42.2188 27.0211 42.2188 21.4454H21.7388ZM21.5797 21.8297L7.09811 7.34811C10.837 3.60924 15.9079 1.50883 21.1954 1.50883V21.9888V42.4688C26.7711 42.4688 32.1185 40.2539 36.0612 36.3112L21.5797 21.8297ZM21.1954 21.9888V1.50883H8.76075V21.9888V42.4688H21.1954V21.9888ZM8.76075 21.9888L23.1824 36.53L27.1498 32.5953L12.7281 18.0541L-1.69358 3.51292L-5.66091 7.44765L8.76075 21.9888ZM12.7281 18.0541L27.2096 32.5357L27.9814 31.7639L13.4998 17.2824L-0.981717 2.80082L-1.75345 3.57255L12.7281 18.0541ZM13.4998 17.2824L27.9119 31.833L31.3358 28.4418L16.9237 13.8911L2.51159 -0.659553L-0.912273 2.7317L13.4998 17.2824ZM16.9237 13.8911L31.2597 28.5168C27.533 32.1696 22.5226 34.2158 17.3041 34.2158L17.3041 13.7358L17.3041 -6.74424C11.8011 -6.74424 6.51755 -4.58657 2.58769 -0.734529L16.9237 13.8911ZM17.3041 13.7358V34.2158C12.0856 34.2158 7.07523 32.1696 3.34855 28.5168L17.6845 13.8911L32.0205 -0.734529C28.0907 -4.58657 22.8071 -6.74424 17.3041 -6.74424V13.7358ZM17.6845 13.8911L3.26159 28.431L7.31588 32.4527L21.7388 17.9128L36.1618 3.3729L32.1075 -0.648784L17.6845 13.8911ZM21.7388 17.9128H1.25884V21.4454H21.7388H42.2188V17.9128H21.7388ZM18.478 13.1194L32.6668 -1.64914C28.5425 -5.61148 23.0451 -7.8244 17.3259 -7.8244L17.3259 12.6556L17.3259 33.1356C12.4657 33.1356 7.794 31.2551 4.28926 27.8879L18.478 13.1194ZM17.3259 12.6556V-7.8244C11.6066 -7.8244 6.1092 -5.6115 1.98494 -1.64914L16.1737 13.1194L30.3625 27.8879C26.8577 31.2551 22.186 33.1356 17.3259 33.1356V12.6556ZM16.1737 13.1194L1.71504 -1.38502L-1.73056 2.04972L12.7281 16.5541L27.1867 31.0585L30.6323 27.6238L16.1737 13.1194ZM12.7281 16.5541L27.2271 2.09001L22.7162 -2.43166L8.21728 12.0324L-6.28168 26.4966L-1.77087 31.0182L12.7281 16.5541ZM8.21728 12.0324L22.406 -2.73609C18.2818 -6.69843 12.7844 -8.91134 7.06512 -8.91134L7.06512 11.5687L7.06512 32.0487C2.20495 32.0487 -2.46672 30.1681 -5.97148 26.801L8.21728 12.0324ZM7.06512 11.5687V-8.91134C1.34587 -8.91134 -4.15155 -6.69842 -8.27579 -2.73609L5.91296 12.0324L20.1017 26.801C16.597 30.1681 11.9253 32.0487 7.06512 32.0487V11.5687ZM5.91296 12.0324L-8.51941 -2.49811L-13.3454 2.2953L1.08694 16.8259L15.5193 31.3564L20.3453 26.563L5.91296 12.0324ZM1.08694 16.8259H21.5669V6.22818H1.08694H-19.3931V16.8259H1.08694ZM1.08694 6.22818H21.5669C21.5669 11.5157 19.4665 16.5866 15.7277 20.3254L1.24612 5.84388L-13.2354 -8.63766C-17.1781 -4.69501 -19.3931 0.652391 -19.3931 6.22818H1.08694ZM1.24612 5.84388L15.7277 20.3254C11.9889 24.0642 6.91792 26.1647 1.63041 26.1647V5.68471V-14.7953C-3.94537 -14.7953 -9.29277 -12.5803 -13.2354 -8.63766L1.24612 5.84388ZM1.63041 5.68471V26.1647H21.1954V5.68471V-14.7953H1.63041V5.68471ZM21.1954 5.68471V26.1647C15.9079 26.1647 10.8369 24.0643 7.09811 20.3254L21.5797 5.84388L36.0612 -8.63766C32.1185 -12.5803 26.7711 -14.7953 21.1954 -14.7953V5.68471ZM21.5797 5.84388L7.09811 20.3254C3.35926 16.5866 1.25884 11.5156 1.25884 6.22818H21.7388H42.2188C42.2188 0.652441 40.0039 -4.69497 36.0612 -8.63766L21.5797 5.84388ZM21.7388 6.22818H1.25884V16.3802H21.7388H42.2188V6.22818H21.7388ZM21.7388 16.3802L36.2204 1.89867L32.9596 -1.36216L18.478 13.1194L3.99647 27.6009L7.25729 30.8618L21.7388 16.3802ZM13.5868 7.85859L13.5868 -12.6214C8.99878 -12.6214 4.51381 -11.2609 0.699016 -8.71195L12.0771 8.31655L23.4552 25.345C20.5341 27.2968 17.0999 28.3386 13.5868 28.3386L13.5868 7.85859ZM12.0771 8.31655L0.699016 -8.71195C-3.11576 -6.163 -6.08903 -2.54008 -7.84479 1.6987L11.0763 9.53606L29.9973 17.3734C28.6529 20.6191 26.3762 23.3933 23.4552 25.345L12.0771 8.31655ZM11.0763 9.53606L-7.84479 1.6987C-9.60054 5.93746 -10.0599 10.6017 -9.16485 15.1015L10.9216 11.1061L31.0081 7.11062C31.6935 10.5562 31.3417 14.1277 29.9973 17.3734L11.0763 9.53606ZM10.9216 11.1061L-9.16485 15.1015C-8.26977 19.6014 -6.06043 23.7348 -2.81623 26.979L11.6653 12.4974L26.1469 -1.98414C28.631 0.499998 30.3227 3.665 31.0081 7.11062L10.9216 11.1061ZM11.6653 12.4974L-2.81623 26.979C0.427969 30.2232 4.56134 32.4325 9.06119 33.3276L13.0566 13.2411L17.0521 -6.8454C20.4977 -6.16002 23.6627 -4.46829 26.1469 -1.98414L11.6653 12.4974ZM13.0566 13.2411L9.06119 33.3276C13.561 34.2226 18.2253 33.7633 22.464 32.0075L14.6267 13.0865L6.78931 -5.8346C10.035 -7.17901 13.6065 -7.53077 17.0521 -6.8454L13.0566 13.2411ZM14.6267 13.0865L22.464 32.0075C26.7028 30.2517 30.3257 27.2785 32.8747 23.4637L15.8462 12.0856L-1.18232 0.707546C0.769457 -2.2135 3.5436 -4.49019 6.78931 -5.8346L14.6267 13.0865ZM15.8462 12.0856L32.8747 23.4637C35.4236 19.6489 36.7841 15.1639 36.7841 10.5759H16.3041H-4.17587C-4.17587 7.06283 -3.13411 3.6286 -1.18232 0.707546L15.8462 12.0856ZM16.3041 10.5759L36.7841 10.5759C36.7841 4.42362 34.3401 -1.47672 29.9898 -5.82706L15.5082 8.65448L1.02669 23.136C-2.30445 19.8049 -4.17587 15.2869 -4.17587 10.5759L16.3041 10.5759ZM15.5082 8.65448L29.9898 -5.82706C25.6394 -10.1774 19.7391 -12.6214 13.5868 -12.6214V7.85859V28.3386C8.87583 28.3386 4.35783 26.4672 1.02669 23.136L15.5082 8.65448ZM13.5868 12.2064V-8.27364C17.3149 -8.27364 20.9592 -7.16814 24.059 -5.09692L12.681 11.9316L1.30289 28.9601C4.93894 31.3896 9.21376 32.6864 13.5868 32.6864V12.2064ZM12.681 11.9316L24.059 -5.09692C27.1588 -3.0257 29.5748 -0.0818019 31.0015 3.36252L12.0805 11.1999L-6.84058 19.0372C-5.16709 23.0774 -2.33314 26.5306 1.30289 28.9601L12.681 11.9316ZM12.0805 11.1999L31.0015 3.36252C32.4282 6.80683 32.8015 10.5969 32.0742 14.2533L11.9877 10.2579L-8.09879 6.26242C-8.95193 10.5514 -8.51407 14.9971 -6.84058 19.0372L12.0805 11.1999ZM11.9877 10.2579L32.0742 14.2533C31.3469 17.9098 29.5516 21.2685 26.9154 23.9046L12.4339 9.42307L-2.04765 -5.05848C-5.13984 -1.96629 -7.24566 1.97341 -8.09879 6.26242L11.9877 10.2579ZM12.4339 9.42307L26.9154 23.9046C24.2793 26.5408 20.9206 28.336 17.2641 29.0633L13.2687 8.97686L9.27325 -11.1096C4.98424 -10.2565 1.04455 -8.15067 -2.04765 -5.05848L12.4339 9.42307ZM13.2687 8.97686L17.2641 29.0633C13.6077 29.7907 9.81766 29.4174 6.37335 27.9907L14.2107 9.06964L22.0481 -9.85141C18.0079 -11.5249 13.5622 -11.9628 9.27325 -11.1096L13.2687 8.97686ZM14.2107 9.06964L6.37335 27.9907C2.92903 26.564 -0.0148686 24.148 -2.08608 21.0482L14.9424 9.67014L31.9709 -1.70794C29.5414 -5.34397 26.0882 -8.17793 22.0481 -9.85141L14.2107 9.06964ZM14.9424 9.67014L-2.08608 21.0482C-4.15731 17.9484 -5.26281 14.304 -5.26281 10.5759H15.2172H35.6972C35.6972 6.20293 34.4004 1.9281 31.9709 -1.70794L14.9424 9.67014ZM15.2172 10.5759L-5.26281 10.5759C-5.26281 5.57673 -3.27689 0.782262 0.258105 -2.75273L14.7397 11.7288L29.2212 26.2104C33.3677 22.0639 35.6972 16.44 35.6972 10.5759L15.2172 10.5759ZM14.7397 11.7288L0.258105 -2.75273C3.7931 -6.28772 8.58756 -8.27364 13.5868 -8.27364L13.5868 12.2064L13.5868 32.6864C19.4508 32.6864 25.0747 30.3569 29.2212 26.2104L14.7397 11.7288Z" fill="white" mask="url(#path-1-inside-1_6558_8098)"/>
</svg>