<svg width="24" height="24" viewBox="0 0 24 24" fill="none" xmlns="http://www.w3.org/2000/svg">
<path d="M20.5715 3.90477H19.1429V2.47619C19.1429 2.3499 19.0928 2.22878 19.0035 2.13947C18.9142 2.05017 18.793 2 18.6667 2C18.5404 2 18.4193 2.05017 18.33 2.13947C18.2407 2.22878 18.1905 2.3499 18.1905 2.47619V3.90477H12.4762V2.47619C12.4762 2.3499 12.4261 2.22878 12.3368 2.13947C12.2475 2.05017 12.1263 2 12 2C11.8737 2 11.7526 2.05017 11.6633 2.13947C11.574 2.22878 11.5239 2.3499 11.5239 2.47619V3.90477H5.80954V2.47619C5.80954 2.3499 5.75937 2.22878 5.67007 2.13947C5.58076 2.05017 5.45964 2 5.33335 2C5.20705 2 5.08593 2.05017 4.99663 2.13947C4.90733 2.22878 4.85716 2.3499 4.85716 2.47619V3.90477H3.42858C3.0497 3.90477 2.68633 4.05528 2.41842 4.32319C2.15051 4.5911 2 4.95447 2 5.33335V20.5715C2 20.9504 2.15051 21.3138 2.41842 21.5817C2.68633 21.8496 3.0497 22.0001 3.42858 22.0001H20.5715C20.9504 22.0001 21.3138 21.8496 21.5817 21.5817C21.8496 21.3138 22.0001 20.9504 22.0001 20.5715V5.33335C22.0001 4.95447 21.8496 4.5911 21.5817 4.32319C21.3138 4.05528 20.9504 3.90477 20.5715 3.90477ZM3.42858 4.85716H4.85716V5.33335C4.85716 5.45964 4.90733 5.58076 4.99663 5.67007C5.08593 5.75937 5.20705 5.80954 5.33335 5.80954C5.45964 5.80954 5.58076 5.75937 5.67007 5.67007C5.75937 5.58076 5.80954 5.45964 5.80954 5.33335V4.85716H11.5239V5.33335C11.5239 5.45964 11.574 5.58076 11.6633 5.67007C11.7526 5.75937 11.8737 5.80954 12 5.80954C12.1263 5.80954 12.2475 5.75937 12.3368 5.67007C12.4261 5.58076 12.4762 5.45964 12.4762 5.33335V4.85716H18.1905V5.33335C18.1905 5.45964 18.2407 5.58076 18.33 5.67007C18.4193 5.75937 18.5404 5.80954 18.6667 5.80954C18.793 5.80954 18.9142 5.75937 19.0035 5.67007C19.0928 5.58076 19.1429 5.45964 19.1429 5.33335V4.85716H20.5715C20.6978 4.85716 20.8189 4.90733 20.9082 4.99663C20.9975 5.08593 21.0477 5.20705 21.0477 5.33335V7.71431H2.95239V5.33335C2.95239 5.20705 3.00256 5.08593 3.09186 4.99663C3.18116 4.90733 3.30228 4.85716 3.42858 4.85716ZM20.5715 21.0477H3.42858C3.30228 21.0477 3.18116 20.9975 3.09186 20.9082C3.00256 20.8189 2.95239 20.6978 2.95239 20.5715V8.6667H21.0477V20.5715C21.0477 20.6978 20.9975 20.8189 20.9082 20.9082C20.8189 20.9975 20.6978 21.0477 20.5715 21.0477ZM15.8953 13.4286L13.5048 13.0667L12.4762 10.8096C12.4314 10.7346 12.368 10.6725 12.292 10.6294C12.2161 10.5863 12.1302 10.5637 12.0429 10.5637C11.9556 10.5637 11.8697 10.5863 11.7938 10.6294C11.7178 10.6725 11.6544 10.7346 11.6096 10.8096L10.5334 13.1048L8.09526 13.4286C8.00799 13.442 7.92614 13.4793 7.85887 13.5365C7.7916 13.5937 7.74155 13.6684 7.71431 13.7524C7.68504 13.8343 7.68026 13.923 7.70056 14.0075C7.72085 14.0921 7.76535 14.1689 7.8286 14.2286L9.61908 16.0572L9.20956 18.5905C9.19077 18.6785 9.19889 18.77 9.23286 18.8532C9.26684 18.9365 9.32509 19.0076 9.40003 19.0572C9.46511 19.103 9.54024 19.1324 9.61908 19.1429C9.69886 19.1433 9.77745 19.1237 9.84765 19.0858L11.981 17.9048L14.1239 19.0858C14.2021 19.1278 14.2905 19.147 14.3791 19.1414C14.4677 19.1358 14.5529 19.1055 14.6252 19.054C14.6975 19.0025 14.754 18.9318 14.7883 18.8499C14.8225 18.768 14.8332 18.6782 14.8191 18.5905L14.381 16.0572L16.1239 14.2667C16.1852 14.2057 16.2283 14.1289 16.2485 14.0448C16.2687 13.9607 16.2651 13.8727 16.2382 13.7905C16.219 13.7049 16.1771 13.626 16.1167 13.5622C16.0563 13.4985 15.9798 13.4523 15.8953 13.4286ZM13.5715 15.5239C13.5193 15.5773 13.4801 15.642 13.4569 15.713C13.4338 15.7841 13.4274 15.8595 13.4381 15.9334L13.7334 17.7429L12.2286 16.9048C12.155 16.8669 12.0733 16.8473 11.9905 16.8477C11.9109 16.8484 11.8326 16.868 11.7619 16.9048L10.2572 17.7429L10.5524 15.9334C10.5611 15.8596 10.5537 15.7847 10.5307 15.714C10.5077 15.6433 10.4696 15.5784 10.4191 15.5239L9.15241 14.2667L10.8858 14.0001C10.9622 13.989 11.0347 13.9588 11.0963 13.9121C11.1579 13.8655 11.2067 13.804 11.2381 13.7334L11.9905 12.1334L12.7429 13.7334C12.7766 13.8042 12.8273 13.8656 12.8904 13.9121C12.9535 13.9586 13.0272 13.9888 13.1048 14.0001L14.8382 14.2667L13.5715 15.5239Z" fill="#707070"/>
</svg>
