<svg width="16" height="16" viewBox="0 0 16 16" fill="none" xmlns="http://www.w3.org/2000/svg">
<g clip-path="url(#clip0_2_857)">
<path d="M9.73676 8.17468C9.73676 8.13609 9.71561 8.10046 9.68161 8.08183L6.7589 6.48337L5.16044 3.56066C5.12318 3.4928 5.01171 3.4928 4.97475 3.56066L3.37629 6.48337L0.453582 8.08183C0.419726 8.10046 0.398438 8.13609 0.398438 8.17468C0.398438 8.21326 0.419579 8.24934 0.453582 8.26796L3.37629 9.86688L4.97475 12.7896C4.99338 12.8234 5.02901 12.8447 5.0676 12.8447C5.10618 12.8447 5.14181 12.8236 5.16044 12.7896L6.7589 9.86688L9.68161 8.26796C9.71606 8.24919 9.73676 8.21326 9.73676 8.17468Z" fill="#1C1B1B"/>
<path d="M8.24496 3.17517L9.76384 4.00573L10.5938 5.52429C10.6067 5.54777 10.6314 5.56252 10.6585 5.56252C10.6855 5.56252 10.7102 5.54787 10.7232 5.52429L11.5542 4.00573L13.0725 3.17517C13.096 3.16225 13.1107 3.13755 13.1107 3.1108C13.1107 3.08404 13.0961 3.05934 13.0725 3.04643L11.5542 2.21615L10.7232 0.697588C10.6973 0.650027 10.6197 0.650539 10.5941 0.697588L9.76414 2.21615L8.24526 3.04643C8.22179 3.05934 8.20703 3.08404 8.20703 3.1108C8.20703 3.13755 8.22149 3.16215 8.24496 3.17517Z" fill="#1C1B1B"/>
<path d="M15.5521 11.9061L13.4639 10.7642L12.3224 8.67566C12.3069 8.64755 12.2774 8.62988 12.245 8.62988C12.2126 8.62988 12.183 8.64743 12.1675 8.67566L11.0253 10.7642L8.9364 11.9061C8.9083 11.9216 8.89062 11.9511 8.89062 11.9835C8.89062 12.0159 8.90818 12.0455 8.9364 12.061L11.0253 13.2036L12.1675 15.2917C12.183 15.3199 12.2126 15.3375 12.245 15.3375C12.2774 15.3375 12.3069 15.32 12.3224 15.2917L13.4639 13.2036L15.5521 12.061C15.5802 12.0455 15.5979 12.0159 15.5979 11.9835C15.5979 11.9511 15.5802 11.9216 15.5521 11.9061Z" fill="#1C1B1B"/>
</g>
<defs>
<clipPath id="clip0_2_857">
<rect width="16" height="16" fill="white"/>
</clipPath>
</defs>
</svg>
