<svg width="24" height="24" viewBox="0 0 24 24" fill="none" xmlns="http://www.w3.org/2000/svg">
<mask id="mask0_13_553" style="mask-type:luminance" maskUnits="userSpaceOnUse" x="1" y="1" width="22" height="22">
<path d="M22.5 22.5V1.5H1.5V22.5H22.5Z" fill="white" stroke="white"/>
</mask>
<g mask="url(#mask0_13_553)">
<path d="M19.7344 13.2461H4.26562V1.64453H19.7344V13.2461Z" stroke="#707070" stroke-miterlimit="10"/>
<path d="M5.55469 17.1133C5.55469 17.8252 4.97753 18.4023 4.26563 18.4023C3.55372 18.4023 2.97656 17.8252 2.97656 17.1133C2.97656 16.4014 3.55372 15.8242 4.26563 15.8242C4.97753 15.8242 5.55469 16.4014 5.55469 17.1133Z" stroke="#707070" stroke-miterlimit="10"/>
<path d="M4.26562 18.4023V23" stroke="#707070" stroke-miterlimit="10"/>
<path d="M13.2891 17.1133C13.2891 17.8252 12.7119 18.4023 12 18.4023C11.2881 18.4023 10.7109 17.8252 10.7109 17.1133C10.7109 16.4014 11.2881 15.8242 12 15.8242C12.7119 15.8242 13.2891 16.4014 13.2891 17.1133Z" stroke="#707070" stroke-miterlimit="10"/>
<path d="M12 18.4023V23" stroke="#707070" stroke-miterlimit="10"/>
<path d="M21.0234 17.1133C21.0234 17.8252 20.4463 18.4023 19.7344 18.4023C19.0225 18.4023 18.4453 17.8252 18.4453 17.1133C18.4453 16.4014 19.0225 15.8242 19.7344 15.8242C20.4463 15.8242 21.0234 16.4014 21.0234 17.1133Z" stroke="#707070" stroke-miterlimit="10"/>
<path d="M19.7344 18.4023V23" stroke="#707070" stroke-miterlimit="10"/>
<path d="M4.26562 8.08984H8.38706C9.90235 8.08984 11.3837 8.53835 12.6445 9.37891C13.9053 10.2195 15.3867 10.668 16.902 10.668H19.7344" stroke="#707070" stroke-miterlimit="10"/>
<path d="M14.5781 5.51172C14.5781 6.22362 14.001 6.80078 13.2891 6.80078C12.5772 6.80078 12 6.22362 12 5.51172C12 4.79981 12.5772 4.22266 13.2891 4.22266C14.001 4.22266 14.5781 4.79981 14.5781 5.51172Z" stroke="#707070" stroke-miterlimit="10"/>
<path d="M19.7344 8.10969C17.5255 8.22214 15.3703 8.81047 13.4153 9.83029" stroke="#707070" stroke-miterlimit="10"/>
<path d="M2.33203 22.3555H6.19922" stroke="#707070" stroke-miterlimit="10"/>
<path d="M10.0664 22.3555H13.9336" stroke="#707070" stroke-miterlimit="10"/>
<path d="M17.8008 22.3555H21.668" stroke="#707070" stroke-miterlimit="10"/>
<path d="M4.26562 18.4024C6.60742 19.9635 9.6582 19.9635 12 18.4024" stroke="#707070" stroke-miterlimit="10"/>
<path d="M12 18.4024C14.3418 19.9635 17.3926 19.9635 19.7344 18.4024" stroke="#707070" stroke-miterlimit="10"/>
</g>
</svg>
