<svg width="24" height="24" viewBox="0 0 24 24" fill="none" xmlns="http://www.w3.org/2000/svg">
<g clip-path="url(#clip0_0_239)">
<mask id="mask0_0_239" style="mask-type:luminance" maskUnits="userSpaceOnUse" x="4" y="4" width="16" height="16">
<path d="M4 4H20V20H4V4Z" fill="white"/>
</mask>
<g mask="url(#mask0_0_239)">
<path d="M12.503 10.2292C12.7602 10.3757 13.0014 10.5596 13.2209 10.7791C14.5393 12.0976 14.5754 14.1991 12.9168 15.8578L10.6703 18.1042C9.01159 19.7629 6.91006 19.7268 5.59163 18.4084C4.27319 17.0899 4.23706 14.9884 5.89575 13.3297L7.53125 11.6875" stroke="#9D9D9C" stroke-miterlimit="10" stroke-linecap="round" stroke-linejoin="round"/>
<path d="M11.497 13.7705C11.2398 13.624 10.9986 13.4401 10.7791 13.2206C9.46067 11.9021 9.42458 9.8006 11.0833 8.14191L13.3297 5.89548C14.9884 4.23676 17.09 4.27288 18.4084 5.59132C19.7268 6.90979 19.763 9.01129 18.1043 10.67L16.4688 12.3122" stroke="#9D9D9C" stroke-miterlimit="10" stroke-linecap="round" stroke-linejoin="round"/>
</g>
</g>
<defs>
<clipPath id="clip0_0_239">
<rect width="16" height="16" fill="white" transform="translate(4 4)"/>
</clipPath>
</defs>
</svg>
