<svg width="32" height="32" viewBox="0 0 32 32" fill="none" xmlns="http://www.w3.org/2000/svg">
<path d="M2.30669 20.32L2.30669 20.1467C2.30669 14.2267 4.64003 11.3733 9.86669 10.88C10.4134 10.8267 10.9067 11.2267 10.96 11.7867C11.0134 12.32 10.6 12.8267 10.0534 12.88C5.8667 13.2667 4.30669 15.24 4.30669 20.16L4.30669 20.3333C4.30669 25.76 6.22669 27.68 11.6534 27.68L20.3467 27.68C25.7734 27.68 27.6934 25.76 27.6934 20.3333L27.6934 20.16C27.6934 15.2133 26.1067 13.24 21.84 12.88C21.2934 12.8133 20.88 12.3467 20.9334 11.7867C20.9734 11.2267 21.4667 10.8267 22.0134 10.8667C27.32 11.32 29.6934 14.1867 29.6934 20.1467L29.6934 20.32C29.6934 26.8667 26.8934 29.6667 20.3467 29.6667L11.6534 29.6667C5.10669 29.6667 2.30669 26.8667 2.30669 20.32Z" fill="#1C1B1B"/>
<path d="M15 20L15 4.82666C15 4.27999 15.4533 3.82666 16 3.82666C16.5467 3.82666 17 4.27999 17 4.82666L17 20C17 20.5467 16.5467 21 16 21C15.4533 21 15 20.5467 15 20Z" fill="#1C1B1B"/>
<path d="M10.5333 7.8C10.5333 7.54667 10.6267 7.29334 10.8267 7.09334L15.2933 2.62667C15.68 2.24 16.32 2.24 16.7067 2.62667L21.1733 7.09334C21.56 7.48 21.56 8.12 21.1733 8.50667C20.7867 8.89334 20.1467 8.89334 19.76 8.50667L16 4.74667L12.24 8.50667C11.8533 8.89334 11.2133 8.89334 10.8267 8.50667C10.6267 8.32 10.5333 8.05334 10.5333 7.8Z" fill="#1C1B1B"/>
</svg>
