<svg width="24" height="24" viewBox="0 0 24 24" fill="none" xmlns="http://www.w3.org/2000/svg">
<path d="M20.1818 20H3.81818C3.33597 20 2.87351 19.8127 2.53253 19.4793C2.19156 19.1459 2 18.6937 2 18.2222V6.22222C2.00072 5.63307 2.2404 5.06825 2.66646 4.65165C3.09253 4.23506 3.67018 4.00071 4.27273 4H17C17.6025 4.00071 18.1802 4.23506 18.6063 4.65165C19.0323 5.06825 19.272 5.63307 19.2727 6.22222H20.1818C20.664 6.22222 21.1265 6.40952 21.4675 6.74292C21.8084 7.07632 22 7.5285 22 8V18.2222C22 18.6937 21.8084 19.1459 21.4675 19.4793C21.1265 19.8127 20.664 20 20.1818 20ZM19.2727 7.11111V18.2222C19.2727 18.458 19.3685 18.6841 19.539 18.8508C19.7095 19.0175 19.9407 19.1111 20.1818 19.1111C20.4229 19.1111 20.6542 19.0175 20.8246 18.8508C20.9951 18.6841 21.0909 18.458 21.0909 18.2222V8C21.0909 7.76425 20.9951 7.53816 20.8246 7.37146C20.6542 7.20476 20.4229 7.11111 20.1818 7.11111H19.2727ZM4.27273 4.88889C3.91107 4.88889 3.56422 5.02936 3.30849 5.27941C3.05276 5.52946 2.90909 5.8686 2.90909 6.22222V18.2222C2.90909 18.458 3.00487 18.6841 3.17536 18.8508C3.34585 19.0175 3.57708 19.1111 3.81818 19.1111H18.6077C18.4474 18.8411 18.3631 18.5344 18.3636 18.2222V6.22222C18.3636 5.8686 18.22 5.52946 17.9642 5.27941C17.7085 5.02936 17.3617 4.88889 17 4.88889H4.27273Z" fill="#1C1B1B"/>
<path d="M9 12.5H4.5C4.23478 12.5 3.98043 12.3946 3.79289 12.2071C3.60536 12.0196 3.5 11.7652 3.5 11.5V7C3.5 6.73478 3.60536 6.48043 3.79289 6.29289C3.98043 6.10536 4.23478 6 4.5 6H9C9.26522 6 9.51957 6.10536 9.70711 6.29289C9.89464 6.48043 10 6.73478 10 7V11.5C10 11.7652 9.89464 12.0196 9.70711 12.2071C9.51957 12.3946 9.26522 12.5 9 12.5ZM4.5 7V11.5H9V7H4.5Z" fill="#1C1B1B"/>
<path d="M17 7.5H12C11.8674 7.5 11.7402 7.44732 11.6464 7.35355C11.5527 7.25979 11.5 7.13261 11.5 7C11.5 6.86739 11.5527 6.74021 11.6464 6.64645C11.7402 6.55268 11.8674 6.5 12 6.5H17C17.1326 6.5 17.2598 6.55268 17.3536 6.64645C17.4473 6.74021 17.5 6.86739 17.5 7C17.5 7.13261 17.4473 7.25979 17.3536 7.35355C17.2598 7.44732 17.1326 7.5 17 7.5Z" fill="#1C1B1B"/>
<path d="M17 10H12C11.8674 10 11.7402 9.94732 11.6464 9.85355C11.5527 9.75979 11.5 9.63261 11.5 9.5C11.5 9.36739 11.5527 9.24021 11.6464 9.14645C11.7402 9.05268 11.8674 9 12 9H17C17.1326 9 17.2598 9.05268 17.3536 9.14645C17.4473 9.24021 17.5 9.36739 17.5 9.5C17.5 9.63261 17.4473 9.75979 17.3536 9.85355C17.2598 9.94732 17.1326 10 17 10Z" fill="#1C1B1B"/>
<path d="M17 12.5H12C11.8674 12.5 11.7402 12.4473 11.6464 12.3536C11.5527 12.2598 11.5 12.1326 11.5 12C11.5 11.8674 11.5527 11.7402 11.6464 11.6464C11.7402 11.5527 11.8674 11.5 12 11.5H17C17.1326 11.5 17.2598 11.5527 17.3536 11.6464C17.4473 11.7402 17.5 11.8674 17.5 12C17.5 12.1326 17.4473 12.2598 17.3536 12.3536C17.2598 12.4473 17.1326 12.5 17 12.5Z" fill="#1C1B1B"/>
<path d="M17 15H4C3.86739 15 3.74021 14.9473 3.64645 14.8536C3.55268 14.7598 3.5 14.6326 3.5 14.5C3.5 14.3674 3.55268 14.2402 3.64645 14.1464C3.74021 14.0527 3.86739 14 4 14H17C17.1326 14 17.2598 14.0527 17.3536 14.1464C17.4473 14.2402 17.5 14.3674 17.5 14.5C17.5 14.6326 17.4473 14.7598 17.3536 14.8536C17.2598 14.9473 17.1326 15 17 15Z" fill="#1C1B1B"/>
<path d="M17 17.5H4C3.86739 17.5 3.74021 17.4473 3.64645 17.3536C3.55268 17.2598 3.5 17.1326 3.5 17C3.5 16.8674 3.55268 16.7402 3.64645 16.6464C3.74021 16.5527 3.86739 16.5 4 16.5H17C17.1326 16.5 17.2598 16.5527 17.3536 16.6464C17.4473 16.7402 17.5 16.8674 17.5 17C17.5 17.1326 17.4473 17.2598 17.3536 17.3536C17.2598 17.4473 17.1326 17.5 17 17.5Z" fill="#1C1B1B"/>
</svg>
