<svg width="24" height="24" viewBox="0 0 24 24" fill="none" xmlns="http://www.w3.org/2000/svg">
<path fill-rule="evenodd" clip-rule="evenodd" d="M9.60056 11.3665H20.943V22.9997H3.05688V9.91235H8.14642L9.60056 11.3665Z" stroke="#707070" stroke-miterlimit="22.9256" stroke-linecap="round" stroke-linejoin="round"/>
<path d="M5.29272 9.60138V1H18.7073V11.1432" stroke="#707070" stroke-miterlimit="22.9256" stroke-linecap="round" stroke-linejoin="round"/>
<path d="M8.14661 3.44446H8.59376M10.606 3.44446H15.8537" stroke="#707070" stroke-miterlimit="22.9256" stroke-linecap="round" stroke-linejoin="round"/>
<path d="M8.14648 5.45703H8.59364M10.6058 5.45703H15.8536" stroke="#707070" stroke-miterlimit="22.9256" stroke-linecap="round" stroke-linejoin="round"/>
<path d="M8.14661 7.46884H8.59376M10.606 7.46884H15.8537" stroke="#707070" stroke-miterlimit="22.9256" stroke-linecap="round" stroke-linejoin="round"/>
<path d="M12.8219 20.6631C14.7446 20.2091 15.9351 18.2825 15.4811 16.3599C15.0272 14.4372 13.1005 13.2467 11.1779 13.7007C9.25526 14.1546 8.06469 16.0813 8.51867 18.0039C8.97266 19.9265 10.8993 21.1171 12.8219 20.6631Z" stroke="#707070" stroke-miterlimit="22.9256" stroke-linecap="round" stroke-linejoin="round"/>
<path d="M12.5783 15.7874L12.3738 15.7027C11.9897 15.5437 11.5454 15.7277 11.3863 16.1118C11.2273 16.4958 11.4113 16.9401 11.7953 17.0992L11.9998 17.1839L12.2044 17.2686C12.5883 17.4276 12.7724 17.872 12.6133 18.256C12.4543 18.6401 12.0099 18.8241 11.6259 18.665L11.4214 18.5804" stroke="#707070" stroke-miterlimit="22.9256" stroke-linecap="round" stroke-linejoin="round"/>
<path d="M12 15.5197V15.0965" stroke="#707070" stroke-miterlimit="22.9256" stroke-linecap="round" stroke-linejoin="round"/>
<path d="M12 19.2697V18.8086" stroke="#1C1B1B" stroke-miterlimit="22.9256" stroke-linecap="round" stroke-linejoin="round"/>
</svg>
