<svg width="26" height="26" viewBox="0 0 26 26" fill="none" xmlns="http://www.w3.org/2000/svg">
<path d="M15.7321 11.0125C16.601 11.0125 17.3054 10.3082 17.3054 9.4393C17.3054 8.57044 16.601 7.86609 15.7321 7.86609C14.8633 7.86609 14.1589 8.57044 14.1589 9.4393C14.1589 10.3082 14.8633 11.0125 15.7321 11.0125Z" fill="#1C1B1B"/>
<path d="M13.1993 19.2715H7.49643C7.07221 19.2694 6.66607 19.0994 6.36684 18.7987C6.0676 18.498 5.89962 18.091 5.89962 17.6668V15.6491L9.80906 12.6423L15.2819 16.772C15.3375 16.8135 15.4028 16.8402 15.4717 16.8495C15.5405 16.8587 15.6105 16.8504 15.6752 16.8251L16.6938 16.4318C16.7605 16.404 16.8205 16.3623 16.8697 16.3093C16.9189 16.2564 16.9561 16.1936 16.979 16.125L17.0321 15.9913C17.0651 15.9083 17.0699 15.8167 17.0457 15.7307C17.0216 15.6447 16.9698 15.5691 16.8984 15.5154L10.1335 10.4221C10.0374 10.3491 9.91997 10.3095 9.79923 10.3095C9.67848 10.3095 9.56106 10.3491 9.46492 10.4221L5.89962 13.1753V7.50382C5.89962 7.07823 6.06869 6.67007 6.36962 6.36914C6.67056 6.0682 7.07871 5.89914 7.5043 5.89914H17.6673C18.0928 5.89914 18.501 6.0682 18.8019 6.36914C19.1029 6.67007 19.2719 7.07823 19.2719 7.50382V12.5676C19.274 12.677 19.3188 12.7812 19.3967 12.858C19.4746 12.9348 19.5794 12.9781 19.6888 12.9786C20.0237 12.9776 20.3542 13.0543 20.6544 13.2028C20.7167 13.2347 20.7862 13.25 20.8562 13.2471C20.9262 13.2442 20.9942 13.2232 21.0536 13.1861C21.113 13.1491 21.1618 13.0973 21.1953 13.0357C21.2287 12.9742 21.2456 12.9051 21.2444 12.835V7.50382C21.2444 7.03434 21.1518 6.56948 20.9719 6.13582C20.7921 5.70215 20.5285 5.30821 20.1963 4.97651C19.864 4.64482 19.4697 4.38189 19.0357 4.20277C18.6017 4.02365 18.1367 3.93185 17.6673 3.93262H7.5043C6.55716 3.93262 5.64881 4.30887 4.97908 4.9786C4.30936 5.64833 3.93311 6.55668 3.93311 7.50382V17.6668C3.93311 18.6139 4.30936 19.5223 4.97908 20.192C5.64881 20.8617 6.55716 21.238 7.5043 21.238H13.8365C13.9156 21.2382 13.9931 21.2153 14.0594 21.1722C14.1257 21.1291 14.1781 21.0675 14.21 20.9951C14.2419 20.9227 14.252 20.8426 14.2391 20.7645C14.2262 20.6865 14.1909 20.6139 14.1374 20.5556C13.8684 20.2845 13.6799 19.9441 13.5926 19.5723C13.5715 19.4847 13.5209 19.407 13.4493 19.3522C13.3777 19.2975 13.2894 19.2689 13.1993 19.2715Z" fill="#1C1B1B"/>
<path d="M21.9719 20.0188L23.7536 19.3167C23.7903 19.3022 23.8217 19.277 23.8439 19.2444C23.8661 19.2118 23.8779 19.1733 23.8779 19.1338C23.8779 19.0944 23.8661 19.0559 23.8439 19.0232C23.8217 18.9906 23.7903 18.9654 23.7536 18.9509L21.9719 18.2489C21.6565 18.1242 21.3701 17.9361 21.1302 17.6963C20.8904 17.4565 20.7024 17.17 20.5776 16.8546L19.8756 15.0848C19.861 15.0482 19.8358 15.0168 19.8032 14.9947C19.7706 14.9726 19.7321 14.9608 19.6927 14.9609C19.6533 14.9608 19.6148 14.9726 19.5822 14.9947C19.5496 15.0168 19.5244 15.0482 19.5098 15.0848L18.8078 16.8546C18.6834 17.1702 18.4954 17.4568 18.2556 17.6967C18.0157 17.9365 17.7291 18.1245 17.4135 18.2489L15.6437 18.9509C15.607 18.9654 15.5755 18.9906 15.5533 19.0232C15.5311 19.0559 15.5193 19.0944 15.5193 19.1338C15.5193 19.1733 15.5311 19.2118 15.5533 19.2444C15.5755 19.277 15.607 19.3022 15.6437 19.3167L17.4135 20.0188C17.7291 20.1432 18.0157 20.3311 18.2556 20.571C18.4954 20.8108 18.6834 21.0974 18.8078 21.413L19.5098 23.1829C19.5241 23.2198 19.5492 23.2516 19.5818 23.2741C19.6144 23.2965 19.6531 23.3086 19.6927 23.3087C19.7323 23.3086 19.771 23.2965 19.8036 23.2741C19.8363 23.2516 19.8613 23.2198 19.8756 23.1829L20.5776 21.413C20.7024 21.0976 20.8904 20.8112 21.1302 20.5714C21.3701 20.3315 21.6565 20.1435 21.9719 20.0188Z" fill="#E61282"/>
</svg>
