<svg width="16" height="16" viewBox="0 0 16 16" fill="none" xmlns="http://www.w3.org/2000/svg">
<g clip-path="url(#clip0_7055_138336)">
<path d="M9.73871 8.17468C9.73871 8.13609 9.71757 8.10046 9.68357 8.08183L6.76085 6.48337L5.16239 3.56066C5.12514 3.4928 5.01366 3.4928 4.97671 3.56066L3.37825 6.48337L0.455535 8.08183C0.421679 8.10046 0.400391 8.13609 0.400391 8.17468C0.400391 8.21326 0.421532 8.24934 0.455535 8.26796L3.37825 9.86688L4.97671 12.7896C4.99533 12.8234 5.03096 12.8447 5.06955 12.8447C5.10814 12.8447 5.14377 12.8236 5.16239 12.7896L6.76085 9.86688L9.68357 8.26796C9.71801 8.24919 9.73871 8.21326 9.73871 8.17468Z" fill="#E61282"/>
<path d="M8.24496 3.17517L9.76384 4.00573L10.5938 5.52429C10.6067 5.54777 10.6314 5.56252 10.6585 5.56252C10.6855 5.56252 10.7102 5.54787 10.7232 5.52429L11.5542 4.00573L13.0725 3.17517C13.096 3.16225 13.1107 3.13755 13.1107 3.1108C13.1107 3.08404 13.0961 3.05934 13.0725 3.04643L11.5542 2.21615L10.7232 0.697588C10.6973 0.650027 10.6197 0.650539 10.5941 0.697588L9.76414 2.21615L8.24526 3.04643C8.22179 3.05934 8.20703 3.08404 8.20703 3.1108C8.20703 3.13755 8.22149 3.16215 8.24496 3.17517Z" fill="#E61282"/>
<path d="M15.554 11.9061L13.4659 10.7642L12.3244 8.67566C12.3089 8.64755 12.2793 8.62988 12.2469 8.62988C12.2145 8.62988 12.1849 8.64743 12.1695 8.67566L11.0272 10.7642L8.93836 11.9061C8.91025 11.9216 8.89258 11.9511 8.89258 11.9835C8.89258 12.0159 8.91013 12.0455 8.93836 12.061L11.0272 13.2036L12.1695 15.2917C12.1849 15.3199 12.2145 15.3375 12.2469 15.3375C12.2793 15.3375 12.3089 15.32 12.3244 15.2917L13.4659 13.2036L15.554 12.061C15.5821 12.0455 15.5998 12.0159 15.5998 11.9835C15.5998 11.9511 15.5821 11.9216 15.554 11.9061Z" fill="#E61282"/>
</g>
<defs>
<clipPath id="clip0_7055_138336">
<rect width="16" height="16" fill="white"/>
</clipPath>
</defs>
</svg>
