<svg width="24" height="24" viewBox="0 0 24 24" fill="none" xmlns="http://www.w3.org/2000/svg">
<g clip-path="url(#clip0_13_515)">
<mask id="mask0_13_515" style="mask-type:luminance" maskUnits="userSpaceOnUse" x="0" y="0" width="24" height="24">
<path d="M0 1.90735e-06H24V24H0V1.90735e-06Z" fill="white"/>
</mask>
<g mask="url(#mask0_13_515)">
<path d="M12.0871 8.22642C12.0871 10.55 10.2436 12.4336 7.96927 12.4336C5.69508 12.4336 3.85144 10.55 3.85144 8.22642C3.85144 5.90283 5.69508 4.0192 7.96927 4.0192C10.2436 4.0192 12.0871 5.90283 12.0871 8.22642Z" stroke="#707070" stroke-miterlimit="10"/>
<path d="M1.84147 19.957C1.13989 19.957 0.599285 19.3108 0.724535 18.6055C1.34769 15.0956 4.3543 12.4339 7.96939 12.4339C11.5845 12.4339 14.5911 15.0956 15.2143 18.6055C15.3395 19.3108 14.7989 19.957 14.0973 19.957H1.84147Z" stroke="#707070" stroke-miterlimit="10"/>
<path d="M20.8655 7.64179C20.8655 9.44048 19.4384 10.8986 17.6779 10.8986C15.9174 10.8986 14.4902 9.44048 14.4902 7.64179C14.4902 5.84315 15.9174 4.38501 17.6779 4.38501C19.4384 4.38501 20.8655 5.84315 20.8655 7.64179Z" stroke="#707070" stroke-miterlimit="10"/>
<path d="M12.5883 14.0982C13.5276 12.2003 15.4541 10.899 17.6779 10.899C20.4764 10.899 22.8038 12.9594 23.2862 15.6765C23.3831 16.2224 22.9646 16.7227 22.4216 16.7227H14.6192" stroke="#707070" stroke-miterlimit="10"/>
</g>
</g>
<defs>
<clipPath id="clip0_13_515">
<rect width="24" height="24" fill="white"/>
</clipPath>
</defs>
</svg>
