<svg width="20" height="20" viewBox="0 0 20 20" fill="none" xmlns="http://www.w3.org/2000/svg">
<path d="M17.4619 4.36063L10.319 0.7892C10.2199 0.739658 10.1106 0.713867 9.99972 0.713867C9.88889 0.713867 9.77958 0.739658 9.68044 0.7892L2.53758 4.36063C2.41884 4.41996 2.31898 4.51121 2.24921 4.62413C2.17944 4.73705 2.14252 4.86718 2.14258 4.99991V10.7856C2.14297 11.7612 2.37842 12.7223 2.82902 13.5875C3.27961 14.4528 3.93207 15.1967 4.73115 15.7563L9.58829 19.1578C9.70829 19.2417 9.85116 19.2867 9.99758 19.2867C10.144 19.2867 10.2869 19.2417 10.4069 19.1578L15.264 15.7563C16.0639 15.1972 16.7172 14.4535 17.1685 13.5882C17.6199 12.7229 17.856 11.7616 17.8569 10.7856V4.99991C17.8569 4.86718 17.82 4.73705 17.7502 4.62413C17.6805 4.51121 17.5806 4.41996 17.4619 4.36063ZM16.4283 10.7856C16.4279 11.5314 16.2479 12.266 15.9035 12.9275C15.5591 13.5889 15.0605 14.1577 14.4497 14.5856L9.99972 17.6992L5.54972 14.5842C4.93919 14.1564 4.44065 13.5879 4.09626 12.9267C3.75187 12.2655 3.57175 11.5311 3.57115 10.7856V5.44134L9.99972 2.22706L16.4283 5.44134V10.7856Z" fill="#E61282"/>
<path d="M7.14281 8.27525L6.13281 9.28525L8.78067 11.9331C8.91462 12.067 9.09627 12.1422 9.28567 12.1422C9.47507 12.1422 9.65672 12.067 9.79067 11.9331L13.8671 7.85668L12.8571 6.84668L9.28567 10.4181L7.14281 8.27525Z" fill="#E61282"/>
</svg>
