<svg width="72" height="72" viewBox="0 0 72 72" fill="none" xmlns="http://www.w3.org/2000/svg">
<path d="M35.5 1C21.4394 1 10 11.9153 10 25.3317C10 42.1946 35.5251 71 35.5251 71C35.5251 71 61 41.3654 61 25.3317C61 11.9153 49.561 1 35.5 1ZM43.1939 32.456C41.0724 34.4799 38.2864 35.492 35.5 35.492C32.714 35.492 29.9272 34.4799 27.8066 32.456C23.564 28.4083 23.564 21.8218 27.8066 17.7737C29.8609 15.8126 32.5936 14.7325 35.5 14.7325C38.4064 14.7325 41.1387 15.813 43.1939 17.7737C47.4364 21.8218 47.4364 28.4083 43.1939 32.456Z" fill="#1C1B1B"/>
</svg>
