<svg width="20" height="20" viewBox="0 0 20 20" fill="none" xmlns="http://www.w3.org/2000/svg">
<g clip-path="url(#clip0_2818_646)">
<path d="M14.9977 0H4.99792C2.24824 0 -0.00195312 2.25019 -0.00195312 4.99988V15.0001C-0.00195312 17.7491 2.24824 20 4.99792 20H14.9977C17.7474 20 19.9976 17.7491 19.9976 15.0001V4.99988C19.9976 2.25019 17.7474 0 14.9977 0ZM18.3309 15.0001C18.3309 16.8376 16.8362 18.3333 14.9977 18.3333H4.99792C3.16023 18.3333 1.66475 16.8376 1.66475 15.0001V4.99988C1.66475 3.16193 3.16023 1.66671 4.99792 1.66671H14.9977C16.8362 1.66671 18.3309 3.16193 18.3309 4.99988V15.0001Z" fill="black"/>
<path d="M15.414 5.83295C16.1044 5.83295 16.664 5.27332 16.664 4.58298C16.664 3.89264 16.1044 3.33301 15.414 3.33301C14.7237 3.33301 14.1641 3.89264 14.1641 4.58298C14.1641 5.27332 14.7237 5.83295 15.414 5.83295Z" fill="black"/>
<path d="M9.99792 5C7.23598 5 4.99805 7.23818 4.99805 9.99988C4.99805 12.7606 7.23598 15.0002 9.99792 15.0002C12.7591 15.0002 14.9978 12.7606 14.9978 9.99988C14.9978 7.23818 12.7591 5 9.99792 5ZM9.99792 13.3335C8.1572 13.3335 6.66475 11.8411 6.66475 9.99988C6.66475 8.15866 8.1572 6.66671 9.99792 6.66671C11.8387 6.66671 13.3311 8.15866 13.3311 9.99988C13.3311 11.8411 11.8387 13.3335 9.99792 13.3335Z" fill="black"/>
</g>
<defs>
<clipPath id="clip0_2818_646">
<rect width="20" height="20" fill="white" transform="translate(-0.00195312)"/>
</clipPath>
</defs>
</svg>
