<svg width="20" height="20" viewBox="0 0 20 20" fill="none" xmlns="http://www.w3.org/2000/svg">
<g clip-path="url(#clip0_2818_641)">
<path d="M19.5558 4.94068L19.5808 5.10402C19.3391 4.24652 18.6866 3.58485 17.8575 3.34402L17.84 3.33985C16.2808 2.91652 10.0066 2.91652 10.0066 2.91652C10.0066 2.91652 3.74829 2.90818 2.17329 3.33985C1.32829 3.58485 0.674959 4.24652 0.437459 5.08652L0.433292 5.10402C-0.149208 8.14651 -0.153375 11.8023 0.459125 15.0598L0.433292 14.8948C0.674959 15.7523 1.32746 16.414 2.15663 16.6548L2.17413 16.659C3.73163 17.0832 10.0075 17.0832 10.0075 17.0832C10.0075 17.0832 16.265 17.0832 17.8408 16.659C18.6866 16.414 19.34 15.7523 19.5775 14.9123L19.5816 14.8948C19.8466 13.4798 19.9983 11.8515 19.9983 10.1882C19.9983 10.1273 19.9983 10.0657 19.9975 10.004C19.9983 9.94735 19.9983 9.87985 19.9983 9.81235C19.9983 8.14818 19.8466 6.51985 19.5558 4.94068ZM8.00496 13.0423V6.96485L13.2266 10.0082L8.00496 13.0423Z" fill="black"/>
</g>
<defs>
<clipPath id="clip0_2818_641">
<rect width="20" height="20" fill="white" transform="translate(-0.00195312)"/>
</clipPath>
</defs>
</svg>
