<svg width="36" height="36" viewBox="0 0 36 36" fill="none" xmlns="http://www.w3.org/2000/svg">
<path d="M30.5793 8.91141H23.8853L20.0981 5.09624C20.0981 4.54029 19.8772 4.0071 19.4841 3.61398C19.091 3.22085 18.5578 3 18.0018 3C17.4459 3 16.9127 3.22085 16.5196 3.61398C16.1264 4.0071 15.9056 4.54029 15.9056 5.09624L11.6293 8.91141H5.42437C4.86841 8.91141 4.33522 9.13226 3.9421 9.52539C3.54898 9.91851 3.32813 10.4517 3.32812 11.0077V30.5726C3.32812 31.1286 3.54898 31.6618 3.9421 32.0549C4.33522 32.448 4.86841 32.6689 5.42437 32.6689H30.5793C31.1353 32.6689 31.6685 32.448 32.0616 32.0549C32.4547 31.6618 32.6756 31.1286 32.6756 30.5726V11.0077C32.6756 10.4517 32.4547 9.91851 32.0616 9.52539C31.6685 9.13226 31.1353 8.91141 30.5793 8.91141ZM16.2969 6.61952C16.4855 6.89741 16.7398 7.12444 17.0372 7.28046C17.3347 7.43648 17.666 7.51667 18.0018 7.51391C18.3277 7.51612 18.6494 7.44132 18.9408 7.29561C19.2322 7.14989 19.4851 6.93739 19.6788 6.67542L21.9009 8.91141H13.7255L16.2969 6.61952ZM18.0018 4.71892C18.14 4.71892 18.2751 4.7599 18.39 4.83668C18.505 4.91346 18.5945 5.02259 18.6474 5.15027C18.7003 5.27795 18.7141 5.41844 18.6872 5.55399C18.6602 5.68953 18.5937 5.81404 18.4959 5.91176C18.3982 6.00948 18.2737 6.07603 18.1382 6.10299C18.0026 6.12995 17.8621 6.11612 17.7344 6.06323C17.6068 6.01034 17.4976 5.92078 17.4209 5.80587C17.3441 5.69096 17.3031 5.55587 17.3031 5.41767C17.3031 5.23235 17.3767 5.05462 17.5078 4.92358C17.6388 4.79254 17.8165 4.71892 18.0018 4.71892ZM5.42437 31.2714C5.23905 31.2714 5.06132 31.1977 4.93028 31.0667C4.79924 30.9357 4.72562 30.7579 4.72562 30.5726V26.6037L11.9227 19.4625C12.0533 19.3345 12.229 19.2628 12.4119 19.2628C12.5948 19.2628 12.7704 19.3345 12.901 19.4625L18.7006 25.2202L12.6075 31.2714H5.42437ZM31.2781 30.5726C31.2781 30.7579 31.2044 30.9357 31.0734 31.0667C30.9424 31.1977 30.7646 31.2714 30.5793 31.2714H14.5919L19.6928 26.2124L20.685 25.2202L25.0871 20.86C25.2178 20.732 25.3934 20.6603 25.5763 20.6603C25.7592 20.6603 25.9348 20.732 26.0654 20.86L31.2781 26.0307V30.5726ZM27.0856 19.8678C26.6873 19.4852 26.1565 19.2715 25.6042 19.2715C25.052 19.2715 24.5211 19.4852 24.1229 19.8678L19.6928 24.2839L13.8932 18.4703C13.495 18.0877 12.9641 17.874 12.4119 17.874C11.8596 17.874 11.3288 18.0877 10.9305 18.4703L4.72562 24.6332V11.0077C4.72562 10.8223 4.79924 10.6446 4.93028 10.5136C5.06132 10.3825 5.23905 10.3089 5.42437 10.3089H30.5793C30.7646 10.3089 30.9424 10.3825 31.0734 10.5136C31.2044 10.6446 31.2781 10.8223 31.2781 11.0077V24.0603L27.0856 19.8678ZM20.7968 13.1039C20.1058 13.1039 19.4304 13.3088 18.8558 13.6927C18.2813 14.0766 17.8335 14.6222 17.569 15.2606C17.3046 15.899 17.2354 16.6015 17.3702 17.2792C17.505 17.957 17.8378 18.5795 18.3264 19.0681C18.815 19.5567 19.4375 19.8894 20.1152 20.0243C20.793 20.1591 21.4954 20.0899 22.1338 19.8254C22.7722 19.561 23.3179 19.1132 23.7018 18.5387C24.0857 17.9641 24.2906 17.2886 24.2906 16.5976C24.2906 15.671 23.9225 14.7824 23.2673 14.1272C22.6121 13.472 21.7234 13.1039 20.7968 13.1039ZM20.7968 18.6939C20.3822 18.6939 19.9769 18.5709 19.6322 18.3406C19.2875 18.1103 19.0188 17.7829 18.8602 17.3998C18.7015 17.0168 18.66 16.5953 18.7409 16.1887C18.8218 15.7821 19.0214 15.4085 19.3146 15.1154C19.6077 14.8222 19.9812 14.6226 20.3879 14.5417C20.7945 14.4608 21.216 14.5023 21.599 14.661C21.9821 14.8196 22.3095 15.0883 22.5398 15.433C22.7701 15.7778 22.8931 16.183 22.8931 16.5976C22.8931 17.1536 22.6722 17.6868 22.2791 18.0799C21.886 18.473 21.3528 18.6939 20.7968 18.6939Z" fill="#1C1B1B"/>
</svg>
