<svg width="36" height="36" viewBox="0 0 36 36" fill="none" xmlns="http://www.w3.org/2000/svg">
<path d="M32.4 9.85325C32.4 8.38983 31.211 7.19922 29.7497 7.19922H6.25035C4.78925 7.19928 3.60051 8.38933 3.60001 9.8537V9.85415V26.1443C3.60001 27.626 4.80106 28.7992 6.25125 28.7992H29.7487C31.2283 28.7992 32.3999 27.5965 32.3999 26.1443V9.85415C32.3999 9.85404 32.3999 9.85392 32.3999 9.85381C32.4 9.85364 32.4 9.85347 32.4 9.85325ZM6.25035 8.88913H29.7497C30.2806 8.88913 30.7125 9.32168 30.7125 9.85466C30.7125 10.1379 30.5719 10.4008 30.3362 10.558L18.5347 18.437C18.2099 18.6538 17.7902 18.6539 17.4654 18.437C17.4654 18.437 5.66355 10.5579 5.66377 10.558C5.66383 10.5581 5.6636 10.5579 5.66355 10.5579C5.42808 10.4008 5.28751 10.1379 5.28751 9.85325C5.28751 9.32162 5.71946 8.88913 6.25035 8.88913ZM29.7488 27.1094H6.25125C5.72593 27.1094 5.28751 26.684 5.28751 26.1443V12.3378L16.5293 19.843C16.976 20.1412 17.488 20.2904 18 20.2904C18.5121 20.2904 19.0241 20.1412 19.4708 19.843L30.7125 12.3378V26.1443C30.7125 26.6703 30.2878 27.1094 29.7488 27.1094Z" fill="#1C1B1B"/>
</svg>
