<svg width="740" height="164" viewBox="0 0 740 164" fill="none" xmlns="http://www.w3.org/2000/svg">
<rect x="0.5" y="0.5" width="739" height="163" rx="3.5" fill="white" stroke="#DDDDDD"/>
<path d="M390.6 64.4004H347.4C346.077 64.4004 345 65.4769 345 66.8004V97.2004C345 98.5239 346.077 99.6004 347.4 99.6004H390.6C391.923 99.6004 393 98.5239 393 97.2004V85.3364C393 85.3362 393 85.3361 393 85.3359V66.8004C393 65.4769 391.923 64.4004 390.6 64.4004ZM347.4 98.0004C346.959 98.0004 346.6 97.6414 346.6 97.2004V87.2758L354.041 79.8344C354.342 79.5297 354.854 79.5257 355.163 79.8383L363.07 87.7381L352.805 98.0004H347.4ZM391.4 97.2003C391.4 97.6413 391.041 98.0003 390.6 98.0003H355.068L378.841 74.2343C379.142 73.9296 379.655 73.9257 379.963 74.2382L391.4 85.668L391.4 97.2003ZM391.4 83.4057L381.097 73.1101C380.19 72.1921 378.606 72.1961 377.706 73.1062L364.201 86.607L356.297 78.7102C355.39 77.7922 353.806 77.7958 352.906 78.7067L346.6 85.0133V66.8004C346.6 66.3594 346.959 66.0004 347.4 66.0004H390.6C391.041 66.0004 391.4 66.3594 391.4 66.8004V83.4057Z" fill="#DDDDDD"/>
<path d="M364.999 70C362.352 70 360.199 72.1532 360.199 74.8C360.199 77.4468 362.352 79.6 364.999 79.6C367.646 79.6 369.799 77.4468 369.799 74.8C369.799 72.1532 367.646 70 364.999 70ZM364.999 78C363.235 78 361.799 76.5644 361.799 74.8C361.799 73.0356 363.235 71.6 364.999 71.6C366.764 71.6 368.199 73.0356 368.199 74.8C368.199 76.5644 366.764 78 364.999 78Z" fill="#DDDDDD"/>
</svg>
