<svg width="24" height="24" viewBox="0 0 24 24" fill="none" xmlns="http://www.w3.org/2000/svg">
  <path d="M17 11H7C5.89543 11 5 11.8954 5 13V19C5 20.1046 5.89543 21 7 21H17C18.1046 21 19 20.1046 19 19V13C19 11.8954 18.1046 11 17 11Z" stroke="#9D9D9C" stroke-width="2" stroke-linecap="round" stroke-linejoin="round"/>
  <path d="M12 17C12.5523 17 13 16.5523 13 16C13 15.4477 12.5523 15 12 15C11.4477 15 11 15.4477 11 16C11 16.5523 11.4477 17 12 17Z" fill="#9D9D9C"/>
  <path d="M7 11V7C7 5.67392 7.52678 4.40215 8.46447 3.46447C9.40215 2.52678 10.6739 2 12 2C13.3261 2 14.5979 2.52678 15.5355 3.46447C16.4732 4.40215 17 5.67392 17 7V11" stroke="#9D9D9C" stroke-width="2" stroke-linecap="round" stroke-linejoin="round"/>
</svg>
