<svg width="24" height="24" viewBox="0 0 24 24" fill="none" xmlns="http://www.w3.org/2000/svg">
<g clip-path="url(#clip0_23_1081)">
<mask id="mask0_23_1081" style="mask-type:luminance" maskUnits="userSpaceOnUse" x="0" y="0" width="24" height="24">
<path d="M23.5 23.5V0.5H0.5V23.5H23.5Z" fill="white" stroke="white"/>
</mask>
<g mask="url(#mask0_23_1081)">
<path d="M0.703125 12C0.703125 12 5.76089 4.96875 12 4.96875C18.2391 4.96875 23.2969 12 23.2969 12C23.2969 12 18.2391 19.0312 12 19.0312C5.76089 19.0312 0.703125 12 0.703125 12Z" stroke="#707070" stroke-miterlimit="10" stroke-linecap="round" stroke-linejoin="round"/>
<path d="M7.78125 12C7.78125 9.67003 9.67003 7.78125 12 7.78125C14.33 7.78125 16.2188 9.67003 16.2188 12C16.2188 14.33 14.33 16.2188 12 16.2188C9.67003 16.2188 7.78125 14.33 7.78125 12Z" stroke="#707070" stroke-miterlimit="10" stroke-linecap="round" stroke-linejoin="round"/>
</g>
</g>
<defs>
<clipPath id="clip0_23_1081">
<rect width="24" height="24" fill="white"/>
</clipPath>
</defs>
</svg>
