<svg width="164" height="164" viewBox="0 0 164 164" fill="none" xmlns="http://www.w3.org/2000/svg">
<rect x="0.5" y="0.5" width="163" height="163" rx="3.5" fill="white" stroke="#DDDDDD"/>
<path d="M103.6 64.4004H60.4C59.0765 64.4004 58 65.4769 58 66.8004V97.2004C58 98.5239 59.0765 99.6004 60.4 99.6004H103.6C104.923 99.6004 106 98.5239 106 97.2004V85.3364C106 85.3362 106 85.3361 106 85.3359V66.8004C106 65.4769 104.923 64.4004 103.6 64.4004ZM60.4 98.0004C59.959 98.0004 59.6 97.6414 59.6 97.2004V87.2758L67.0411 79.8344C67.3418 79.5297 67.8543 79.5257 68.163 79.8383L76.0701 87.7381L65.8048 98.0004H60.4ZM104.4 97.2003C104.4 97.6413 104.041 98.0003 103.6 98.0003H68.0676L91.841 74.2343C92.1418 73.9296 92.6547 73.9257 92.9626 74.2382L104.4 85.668L104.4 97.2003ZM104.4 83.4057L94.0972 73.1101C93.1902 72.1921 91.6062 72.1961 90.7062 73.1062L77.2015 86.607L69.2973 78.7102C68.3903 77.7922 66.8063 77.7958 65.9063 78.7067L59.6 85.0133V66.8004C59.6 66.3594 59.959 66.0004 60.4 66.0004H103.6C104.041 66.0004 104.4 66.3594 104.4 66.8004V83.4057Z" fill="#DDDDDD"/>
<path d="M77.9992 70C75.3524 70 73.1992 72.1532 73.1992 74.8C73.1992 77.4468 75.3524 79.6 77.9992 79.6C80.6461 79.6 82.7992 77.4468 82.7992 74.8C82.7992 72.1532 80.6462 70 77.9992 70ZM77.9992 78C76.2347 78 74.7993 76.5644 74.7993 74.8C74.7993 73.0356 76.2347 71.6 77.9992 71.6C79.7637 71.6 81.1992 73.0356 81.1992 74.8C81.1992 76.5644 79.7637 78 77.9992 78Z" fill="#DDDDDD"/>
</svg>
