<svg width="24" height="24" viewBox="0 0 24 24" fill="none" xmlns="http://www.w3.org/2000/svg">
<path d="M10.1779 15.6055L5.64084 16.7397C4.01535 17.1461 2.875 18.6066 2.875 20.2822V22.9997H21.1323V20.2822C21.1323 18.6066 19.9919 17.1461 18.3664 16.7397L13.8294 15.6055" stroke="#707070" stroke-miterlimit="10" stroke-linecap="round" stroke-linejoin="round"/>
<path d="M10.1797 14.2656V16.5187C10.1797 17.527 10.9971 18.3444 12.0054 18.3444C13.0137 18.3444 13.8311 17.527 13.8311 16.5187V14.2656" stroke="#707070" stroke-miterlimit="10" stroke-linecap="round" stroke-linejoin="round"/>
<path d="M12.0547 2.80596C12.2736 1.77383 13.1877 1 14.2855 1" stroke="#707070" stroke-miterlimit="10" stroke-linecap="round" stroke-linejoin="round"/>
<path d="M15.3966 3.282H14.7055C13.8219 3.282 12.9452 3.12755 12.1147 2.82557C11.2843 2.5236 10.4075 2.36914 9.52393 2.36914H9.19927C7.72143 2.36914 6.52344 3.56714 6.52344 5.04497C6.52344 5.93962 6.97056 6.77512 7.715 7.2714L7.89273 7.38989H16.1085L16.5511 7.09485C17.13 6.70889 17.4778 6.05907 17.4778 5.36319C17.4778 4.21381 16.546 3.282 15.3966 3.282Z" stroke="#707070" stroke-miterlimit="10" stroke-linecap="round" stroke-linejoin="round"/>
<path d="M17.9375 22.999V21.082" stroke="#707070" stroke-miterlimit="10" stroke-linecap="round" stroke-linejoin="round"/>
<path d="M6.07031 22.999V21.082" stroke="#707070" stroke-miterlimit="10" stroke-linecap="round" stroke-linejoin="round"/>
<path d="M16.1142 7.39062H7.89844V10.5856C7.89844 12.8544 9.73758 14.6935 12.0063 14.6935C14.2751 14.6935 16.1142 12.8544 16.1142 10.5856V7.39062Z" stroke="#707070" stroke-miterlimit="10" stroke-linecap="round" stroke-linejoin="round"/>
</svg>
