<svg width="24" height="24" viewBox="0 0 24 24" fill="none" xmlns="http://www.w3.org/2000/svg">
<path d="M20.3862 5.94094H15.9235L13.3987 3.3975C13.3987 3.02686 13.2515 2.6714 12.9894 2.40932C12.7273 2.14724 12.3719 2 12.0012 2C11.6306 2 11.2751 2.14724 11.013 2.40932C10.751 2.6714 10.6037 3.02686 10.6037 3.3975L7.75284 5.94094H3.61625C3.24561 5.94094 2.89015 6.08818 2.62807 6.35026C2.36599 6.61234 2.21875 6.9678 2.21875 7.33844V20.3817C2.21875 20.7524 2.36599 21.1078 2.62807 21.3699C2.89015 21.632 3.24561 21.7792 3.61625 21.7792H20.3862C20.7568 21.7792 21.1123 21.632 21.3744 21.3699C21.6365 21.1078 21.7837 20.7524 21.7837 20.3817V7.33844C21.7837 6.9678 21.6365 6.61234 21.3744 6.35026C21.1123 6.08818 20.7568 5.94094 20.3862 5.94094ZM10.8646 4.41301C10.9903 4.59827 11.1599 4.74962 11.3582 4.85364C11.5564 4.95766 11.7773 5.01112 12.0012 5.00928C12.2184 5.01075 12.4329 4.96088 12.6272 4.86374C12.8215 4.7666 12.9901 4.62493 13.1192 4.45028L14.6006 5.94094H9.15033L10.8646 4.41301ZM12.0012 3.14595C12.0934 3.14595 12.1834 3.17327 12.26 3.22445C12.3366 3.27564 12.3963 3.34839 12.4316 3.43351C12.4669 3.51863 12.4761 3.6123 12.4581 3.70266C12.4401 3.79302 12.3958 3.87602 12.3306 3.94117C12.2655 4.00632 12.1825 4.05069 12.0921 4.06866C12.0017 4.08664 11.9081 4.07741 11.823 4.04215C11.7378 4.00689 11.6651 3.94719 11.6139 3.87058C11.5627 3.79398 11.5354 3.70391 11.5354 3.61178C11.5354 3.48823 11.5845 3.36975 11.6718 3.28239C11.7592 3.19503 11.8777 3.14595 12.0012 3.14595ZM3.61625 20.8476C3.4927 20.8476 3.37421 20.7985 3.28685 20.7111C3.19949 20.6238 3.15041 20.5053 3.15041 20.3817V17.7358L7.94849 12.975C8.03556 12.8897 8.15264 12.8418 8.27457 12.8418C8.3965 12.8418 8.51358 12.8897 8.60065 12.975L12.4671 16.8135L8.405 20.8476H3.61625ZM20.852 20.3817C20.852 20.5053 20.803 20.6238 20.7156 20.7111C20.6282 20.7985 20.5098 20.8476 20.3862 20.8476H9.72797L13.1285 17.4749L13.79 16.8135L16.7248 13.9067C16.8118 13.8213 16.9289 13.7735 17.0508 13.7735C17.1728 13.7735 17.2899 13.8213 17.3769 13.9067L20.852 17.3538V20.3817ZM18.057 13.2452C17.7915 12.9901 17.4377 12.8477 17.0695 12.8477C16.7013 12.8477 16.3474 12.9901 16.0819 13.2452L13.1285 16.1892L9.26213 12.3135C8.99664 12.0585 8.64274 11.916 8.27457 11.916C7.9064 11.916 7.5525 12.0585 7.287 12.3135L3.15041 16.4222V7.33844C3.15041 7.21489 3.19949 7.09641 3.28685 7.00904C3.37421 6.92168 3.4927 6.87261 3.61625 6.87261H20.3862C20.5098 6.87261 20.6282 6.92168 20.7156 7.00904C20.803 7.09641 20.852 7.21489 20.852 7.33844V16.0402L18.057 13.2452ZM13.8646 8.73593C13.4039 8.73593 12.9536 8.87254 12.5705 9.12847C12.1875 9.3844 11.889 9.74816 11.7127 10.1738C11.5364 10.5994 11.4903 11.0677 11.5801 11.5195C11.67 11.9713 11.8919 12.3863 12.2176 12.7121C12.5433 13.0378 12.9583 13.2596 13.4102 13.3495C13.862 13.4394 14.3303 13.3932 14.7559 13.217C15.1815 13.0407 15.5453 12.7421 15.8012 12.3591C16.0571 11.9761 16.1937 11.5258 16.1937 11.0651C16.1937 10.4474 15.9483 9.85493 15.5115 9.41813C15.0747 8.98133 14.4823 8.73593 13.8646 8.73593ZM13.8646 12.4626C13.5882 12.4626 13.318 12.3806 13.0881 12.2271C12.8583 12.0735 12.6792 11.8553 12.5734 11.5999C12.4677 11.3445 12.44 11.0635 12.4939 10.7925C12.5478 10.5214 12.6809 10.2724 12.8764 10.0769C13.0718 9.88147 13.3208 9.74837 13.5919 9.69445C13.863 9.64053 14.144 9.6682 14.3994 9.77398C14.6547 9.87975 14.873 10.0589 15.0265 10.2887C15.1801 10.5185 15.2621 10.7887 15.2621 11.0651C15.2621 11.4357 15.1148 11.7912 14.8527 12.0533C14.5907 12.3154 14.2352 12.4626 13.8646 12.4626Z" fill="#707070"/>
</svg>
