<svg width="24" height="24" viewBox="0 0 24 24" fill="none" xmlns="http://www.w3.org/2000/svg">
<mask id="mask0_1668_17483" style="mask-type:luminance" maskUnits="userSpaceOnUse" x="2" y="2" width="20" height="20">
<path d="M2 2H22V22H2V2Z" fill="white"/>
</mask>
<g mask="url(#mask0_1668_17483)">
<path d="M10.5938 10.5937C10.5938 11.4567 9.89418 12.1562 9.03125 12.1562H4.34375C3.48082 12.1562 2.78125 11.4567 2.78125 10.5937V4.34375C2.78125 3.48082 3.48082 2.78125 4.34375 2.78125H9.03125C9.89418 2.78125 10.5938 3.48082 10.5938 4.34375V10.5937Z" stroke="#707070" stroke-miterlimit="10"/>
<path d="M21.2188 19.6562C21.2188 20.5192 20.5192 21.2188 19.6563 21.2188H14.9688C14.1058 21.2188 13.4062 20.5192 13.4062 19.6562V13.4062C13.4062 12.5433 14.1058 11.8437 14.9688 11.8437H19.6563C20.5192 11.8437 21.2188 12.5433 21.2188 13.4062V19.6562Z" stroke="#707070" stroke-miterlimit="10"/>
<path d="M10.5938 19.6562C10.5938 20.5192 9.89418 21.2188 9.03125 21.2188H4.34375C3.48082 21.2188 2.78125 20.5192 2.78125 19.6562V16.5312C2.78125 15.6683 3.48082 14.9687 4.34375 14.9687H9.03125C9.89418 14.9687 10.5938 15.6683 10.5938 16.5312V19.6562Z" stroke="#707070" stroke-miterlimit="10"/>
<path d="M21.2188 7.46875C21.2188 8.33168 20.5192 9.03125 19.6563 9.03125H14.9688C14.1058 9.03125 13.4062 8.33168 13.4062 7.46875V4.34375C13.4062 3.48082 14.1058 2.78125 14.9688 2.78125H19.6563C20.5192 2.78125 21.2188 3.48082 21.2188 4.34375V7.46875Z" stroke="#707070" stroke-miterlimit="10"/>
</g>
</svg>
