<svg width="24" height="24" viewBox="0 0 24 24" fill="none" xmlns="http://www.w3.org/2000/svg">
<mask id="mask0_1668_17570" style="mask-type:luminance" maskUnits="userSpaceOnUse" x="0" y="0" width="24" height="24">
<path d="M0 1.90735e-06H24V24H0V1.90735e-06Z" fill="white"/>
</mask>
<g mask="url(#mask0_1668_17570)">
<path d="M12.0873 8.22642C12.0873 10.55 10.2437 12.4336 7.96939 12.4336C5.6952 12.4336 3.85156 10.55 3.85156 8.22642C3.85156 5.90283 5.6952 4.0192 7.96939 4.0192C10.2437 4.0192 12.0873 5.90283 12.0873 8.22642Z" stroke="#707070" stroke-miterlimit="10"/>
<path d="M1.83818 19.957C1.1366 19.957 0.595989 19.3108 0.721239 18.6055C1.3444 15.0956 4.351 12.4339 7.9661 12.4339C11.5812 12.4339 14.5878 15.0956 15.211 18.6055C15.3362 19.3108 14.7956 19.957 14.094 19.957H1.83818Z" stroke="#707070" stroke-miterlimit="10"/>
<path d="M20.8597 7.64161C20.8597 9.4403 19.4325 10.8984 17.672 10.8984C15.9115 10.8984 14.4844 9.4403 14.4844 7.64161C14.4844 5.84297 15.9115 4.38483 17.672 4.38483C19.4325 4.38483 20.8597 5.84297 20.8597 7.64161Z" stroke="#707070" stroke-miterlimit="10"/>
<path d="M12.5859 14.0982C13.5253 12.2003 15.4518 10.899 17.6756 10.899C20.4741 10.899 22.8015 12.9594 23.2839 15.6765C23.3808 16.2224 22.9623 16.7227 22.4192 16.7227H14.6169" stroke="#707070" stroke-miterlimit="10"/>
</g>
</svg>
