<svg width="24" height="24" viewBox="0 0 24 24" fill="none" xmlns="http://www.w3.org/2000/svg">
<mask id="mask0_1668_17590" style="mask-type:luminance" maskUnits="userSpaceOnUse" x="1" y="1" width="22" height="22">
<path d="M1 0.999998H23V23H1V0.999998Z" fill="white"/>
</mask>
<g mask="url(#mask0_1668_17590)">
<path d="M9.53906 17.1544C10.1276 20.1198 12.7434 22.3555 15.8817 22.3555C17.1793 22.3555 18.3874 21.973 19.4 21.3151L22.0376 22.0446L21.3081 19.407C21.966 18.3944 22.3485 17.1863 22.3485 15.8887C22.3485 12.7504 20.1129 10.1346 17.1474 9.54605" stroke="#707070" stroke-miterlimit="10"/>
<path d="M9.39649 1.64453C5.11306 1.64453 1.64062 5.11696 1.64062 9.40039C1.64062 10.936 2.08703 12.3673 2.85694 13.5718L1.9515 16.8454L5.22504 15.9399C6.42958 16.7099 7.86087 17.1562 9.39649 17.1562C13.6799 17.1562 17.1523 13.6838 17.1523 9.40039C17.1523 5.11696 13.6799 1.64453 9.39649 1.64453Z" stroke="#707070" stroke-miterlimit="10"/>
<path d="M10.0391 13.9336H8.75V12.6445H10.0391V13.9336Z" fill="#707070"/>
<path d="M7.46094 7.44531C7.46094 6.37741 8.32663 5.51172 9.39453 5.51172C10.4624 5.51172 11.3281 6.37741 11.3281 7.44531C11.3281 8.01035 11.0857 8.51871 10.6992 8.87222L9.39453 10.0664V11.3555" stroke="#707070" stroke-miterlimit="10"/>
</g>
</svg>
