<svg width="24" height="24" viewBox="0 0 24 24" fill="none" xmlns="http://www.w3.org/2000/svg">
<path d="M21.8565 21.1455L18.6623 17.9514C19.2865 17.1473 19.5808 16.1356 19.4853 15.1222C19.3898 14.1088 18.9117 13.1699 18.1483 12.4965C17.3849 11.8232 16.3936 11.4662 15.3762 11.4981C14.3588 11.5299 13.3918 11.9483 12.672 12.6681C11.9522 13.3879 11.5338 14.3549 11.502 15.3723C11.4701 16.3897 11.8272 17.381 12.5005 18.1444C13.1738 18.9078 14.1127 19.3859 15.1261 19.4814C16.1395 19.5769 17.1512 19.2826 17.9553 18.6584L21.1494 21.8526C21.1959 21.899 21.251 21.9358 21.3116 21.9609C21.3723 21.986 21.4373 21.999 21.5029 21.999C21.5686 21.999 21.6336 21.986 21.6943 21.9609C21.7549 21.9358 21.81 21.899 21.8565 21.8526C21.9029 21.8061 21.9397 21.751 21.9648 21.6904C21.99 21.6297 22.0029 21.5647 22.0029 21.499C22.0029 21.4334 21.99 21.3684 21.9648 21.3077C21.9397 21.2471 21.9029 21.192 21.8565 21.1455ZM13.3815 17.6205C12.8907 17.1298 12.5852 16.484 12.5172 15.7933C12.4492 15.1025 12.6228 14.4096 13.0084 13.8325C13.394 13.2554 13.9677 12.8299 14.6319 12.6284C15.2961 12.4269 16.0096 12.462 16.6508 12.7276C17.292 12.9932 17.8213 13.4729 18.1485 14.085C18.4757 14.6971 18.5805 15.4037 18.4451 16.0845C18.3097 16.7652 17.9425 17.3779 17.406 17.8182C16.8694 18.2585 16.1969 18.4992 15.5028 18.4992C15.1087 18.5002 14.7183 18.4231 14.3542 18.2723C13.9901 18.1214 13.6595 17.8998 13.3816 17.6204L13.3815 17.6205Z" fill="#707070"/>
<path d="M20.7031 5.84089L11.7031 2.04088C11.6392 2.01392 11.57 2 11.5 2C11.43 2 11.3608 2.01392 11.2969 2.04088L2.29686 5.84089C2.2085 5.87822 2.13343 5.9391 2.08075 6.01613C2.02806 6.09317 2.00001 6.18307 2 6.27494V16.725C2.00001 16.8169 2.02806 16.9067 2.08075 16.9838C2.13344 17.0608 2.20851 17.1216 2.29686 17.1589L11.2969 20.9589C11.3608 20.986 11.43 21 11.5 21C11.57 21 11.6392 20.986 11.7031 20.9589L12.8281 20.4839C12.9476 20.4317 13.0407 20.3369 13.0871 20.22C13.1335 20.1031 13.1296 19.9736 13.0761 19.8594C13.0227 19.7453 12.924 19.6557 12.8016 19.6102C12.6791 19.5646 12.5427 19.5667 12.4219 19.6161L11.5 20.0053L2.99998 16.4163V7.00588L11.2969 10.509C11.3608 10.536 11.43 10.55 11.5 10.55C11.57 10.55 11.6392 10.536 11.7031 10.509L20 7.00588V12.45C19.9994 12.5128 20.0118 12.575 20.0367 12.6332C20.0615 12.6913 20.0982 12.7443 20.1447 12.7889C20.1912 12.8334 20.2465 12.8688 20.3075 12.893C20.3685 12.9172 20.4339 12.9296 20.5 12.9296C20.5661 12.9296 20.6315 12.9172 20.6924 12.893C20.7534 12.8688 20.8088 12.8334 20.8553 12.7889C20.9017 12.7443 20.9385 12.6913 20.9633 12.6332C20.9882 12.575 21.0006 12.5128 21 12.45V6.27494C21 6.18307 20.9719 6.09317 20.9192 6.01613C20.8665 5.9391 20.7915 5.87822 20.7031 5.84089ZM11.5 2.9947L14.5003 4.26153L6.79686 7.51403C6.7764 7.52285 6.75659 7.53296 6.73756 7.54431L3.73123 6.27494L11.5 2.9947ZM11.5 9.55522L7.9625 8.06154L15.7031 4.79333C15.7125 4.78945 15.7208 4.78487 15.7296 4.78055L19.2688 6.27494L11.5 9.55522Z" fill="#707070"/>
</svg>
