<svg width="24" height="24" viewBox="0 0 24 24" fill="none" xmlns="http://www.w3.org/2000/svg">
<mask id="mask0_1668_17554" style="mask-type:luminance" maskUnits="userSpaceOnUse" x="1" y="1" width="22" height="22">
<path d="M1 0.999998H23V23H1V0.999998Z" fill="white"/>
</mask>
<g mask="url(#mask0_1668_17554)">
<path d="M14.0672 3.97692C14.8269 4.17298 15.5446 4.47398 16.2036 4.86371C16.2036 4.86371 16.521 4.54612 16.8776 4.18953C17.1366 3.93034 17.4879 3.78497 17.8542 3.78497C18.22 3.78497 18.5715 3.93034 18.8304 4.18953C19.1445 4.50367 19.4924 4.85159 19.8065 5.16573C20.0658 5.42462 20.2111 5.77602 20.2111 6.1419C20.2111 6.50816 20.0658 6.85952 19.8065 7.1184C19.4499 7.475 19.1324 7.79254 19.1324 7.79254C19.5221 8.45151 19.8231 9.16913 20.0192 9.9289H20.9708C21.7333 9.9289 22.3516 10.5471 22.3516 11.3096V12.6904C22.3516 13.4529 21.7333 14.0711 20.9708 14.0711H20.0192C19.8231 14.8308 19.5221 15.5485 19.1324 16.2074C19.1324 16.2074 19.4499 16.525 19.8065 16.8816C20.0658 17.1405 20.2111 17.4918 20.2111 17.8581C20.2111 18.224 20.0658 18.5754 19.8065 18.8343C19.4924 19.1484 19.1445 19.4963 18.8304 19.8104C18.5715 20.0697 18.22 20.215 17.8542 20.215C17.4879 20.215 17.1366 20.0697 16.8776 19.8104C16.521 19.4538 16.2036 19.1363 16.2036 19.1363C15.5446 19.526 14.8269 19.827 14.0672 20.023V20.9747C14.0672 21.7372 13.449 22.3555 12.6864 22.3555H11.3057C10.5432 22.3555 9.925 21.7372 9.925 20.9747V20.023C9.16527 19.827 8.44761 19.526 7.78864 19.1363C7.78864 19.1363 7.4711 19.4538 7.1145 19.8104C6.85561 20.0697 6.50422 20.215 6.13799 20.215C5.77211 20.215 5.42067 20.0697 5.16183 19.8104C4.84773 19.4963 4.49977 19.1484 4.18562 18.8343C3.92643 18.5754 3.78107 18.224 3.78107 17.8581C3.78107 17.4918 3.92643 17.1405 4.18562 16.8816C4.54222 16.525 4.8598 16.2074 4.8598 16.2074C4.47007 15.5485 4.16912 14.8308 3.97301 14.0711H3.02138C2.25886 14.0711 1.64062 13.4529 1.64062 12.6904V11.3096C1.64062 10.5471 2.25886 9.9289 3.02138 9.9289H3.97301C4.16912 9.16913 4.47007 8.45151 4.8598 7.79254C4.8598 7.79254 4.54222 7.475 4.18562 7.1184C3.92643 6.85952 3.78107 6.50816 3.78107 6.1419C3.78107 5.77602 3.92643 5.42462 4.18562 5.16573C4.49977 4.85159 4.84773 4.50367 5.16183 4.18953C5.42067 3.93034 5.77211 3.78497 6.13799 3.78497C6.50422 3.78497 6.85561 3.93034 7.1145 4.18953C7.4711 4.54612 7.78864 4.86371 7.78864 4.86371C8.44761 4.47398 9.16527 4.17298 9.925 3.97692V3.02524C9.925 2.26272 10.5432 1.64453 11.3057 1.64453H12.6864C13.449 1.64453 14.0672 2.26272 14.0672 3.02524V3.97692Z" stroke="#707070" stroke-miterlimit="10" stroke-linecap="round" stroke-linejoin="round"/>
<path d="M11.9938 7.8582C14.2799 7.8582 16.1359 9.71424 16.1359 12.0004C16.1359 14.2865 14.2799 16.1426 11.9938 16.1426C9.7076 16.1426 7.85156 14.2865 7.85156 12.0004C7.85156 9.71424 9.7076 7.8582 11.9938 7.8582Z" stroke="#707070" stroke-miterlimit="10" stroke-linecap="round" stroke-linejoin="round"/>
</g>
</svg>
