<svg width="72" height="72" viewBox="0 0 72 72" fill="none" xmlns="http://www.w3.org/2000/svg">
<path d="M33.1669 2H2V33.1669H33.1669V2Z" fill="#1C1B1B"/>
<path d="M64.333 38.834H44.5C41.3847 38.834 38.833 41.3848 38.833 44.5001V64.334C38.833 67.4501 41.3847 70.0001 44.5 70.0001H64.333C67.4491 70.0001 70 67.4501 70 64.334V44.5001C70 41.3848 67.4491 38.834 64.333 38.834Z" fill="#1C1B1B"/>
<path d="M54.4169 2C45.8115 2 38.833 8.97847 38.833 17.5864C38.833 26.1883 45.8115 33.1669 54.4169 33.1669C63.0215 33.1669 70 26.1885 70 17.5864C70 8.97847 63.0215 2 54.4169 2Z" fill="#1C1B1B"/>
<path d="M19 38.834L2 70.0001H36L19 38.834Z" fill="#1C1B1B"/>
</svg>
