<svg width="20" height="20" viewBox="0 0 20 20" fill="none" xmlns="http://www.w3.org/2000/svg">
<g clip-path="url(#clip0_825_14573)">
<rect x="1.66797" y="1.71558" width="16.6667" height="16.6667" rx="8.33333" fill="#DDDDDD"/>
<rect x="2.66797" y="2.71558" width="15" height="15" rx="7.5" fill="#DDDDDD"/>
<rect x="2.66797" y="2.71558" width="15" height="15" rx="7.5" stroke="#DDDDDD" stroke-width="2"/>
<path fill-rule="evenodd" clip-rule="evenodd" d="M13.7761 6.95025L8.70443 11.8448L7.3586 10.4069C7.11068 10.1732 6.7211 10.159 6.43777 10.3573C6.16152 10.5628 6.0836 10.924 6.2536 11.2144L7.84735 13.8069C8.00318 14.0478 8.27235 14.1965 8.57693 14.1965C8.86735 14.1965 9.1436 14.0478 9.29943 13.8069C9.55443 13.474 14.4207 7.67275 14.4207 7.67275C15.0582 7.02109 14.2861 6.44734 13.7761 6.94317V6.95025Z" fill="white"/>
</g>
<defs>
<clipPath id="clip0_825_14573">
<rect x="1.66797" y="1.71558" width="16.6667" height="16.6667" rx="8.33333" fill="white"/>
</clipPath>
</defs>
</svg>
