<svg width="19" height="15" viewBox="0 0 19 15" fill="none" xmlns="http://www.w3.org/2000/svg">
<path d="M0.500083 8.00059L17.2931 8.00059L11.1461 14.1466C11.0522 14.2405 10.9995 14.3678 10.9995 14.5006C10.9995 14.6334 11.0522 14.7607 11.1461 14.8546C11.24 14.9485 11.3673 15.0012 11.5001 15.0012C11.6329 15.0012 11.7602 14.9485 11.8541 14.8546L18.8541 7.85459C18.9006 7.80814 18.9376 7.75297 18.9628 7.69222C18.988 7.63148 19.001 7.56636 19.001 7.50059C19.001 7.43482 18.988 7.3697 18.9628 7.30896C18.9376 7.24821 18.9006 7.19303 18.8541 7.14659L11.8541 0.146589C11.7602 0.0527023 11.6329 -4.26058e-05 11.5001 -4.26174e-05C11.3673 -4.2629e-05 11.24 0.0527022 11.1461 0.146589C11.0522 0.240475 10.9995 0.367813 10.9995 0.500589C10.9995 0.633364 11.0522 0.760702 11.1461 0.854589L17.2931 7.00059L0.500083 7.00059C0.367474 7.00059 0.240298 7.05327 0.146529 7.14703C0.0527598 7.2408 8.26833e-05 7.36798 8.26717e-05 7.50059C8.26601e-05 7.6332 0.0527598 7.76037 0.146529 7.85414C0.240298 7.94791 0.367474 8.00059 0.500083 8.00059Z" fill="#1C1B1B"/>
</svg>
