<svg width="24" height="24" viewBox="0 0 24 24" fill="none" xmlns="http://www.w3.org/2000/svg">
<path d="M2.99911 12.5L19.7921 12.5L13.6451 18.646C13.5512 18.7399 13.4985 18.8672 13.4985 19C13.4985 19.1328 13.5512 19.2601 13.6451 19.354C13.739 19.4479 13.8663 19.5006 13.9991 19.5006C14.1319 19.5006 14.2592 19.4479 14.3531 19.354L21.3531 12.354C21.3997 12.3075 21.4366 12.2524 21.4618 12.1916C21.487 12.1309 21.5 12.0657 21.5 12C21.5 11.9342 21.487 11.8691 21.4618 11.8083C21.4366 11.7476 21.3997 11.6924 21.3531 11.646L14.3531 4.64598C14.2592 4.55209 14.1319 4.49935 13.9991 4.49935C13.8663 4.49935 13.739 4.55209 13.6451 4.64598C13.5512 4.73987 13.4985 4.86721 13.4985 4.99998C13.4985 5.13276 13.5512 5.26009 13.6451 5.35398L19.7921 11.5L2.99911 11.5C2.8665 11.5 2.73932 11.5527 2.64555 11.6464C2.55178 11.7402 2.49911 11.8674 2.49911 12C2.49911 12.1326 2.55178 12.2598 2.64555 12.3535C2.73932 12.4473 2.8665 12.5 2.99911 12.5Z" fill="white"/>
</svg>
