<svg width="24" height="24" viewBox="0 0 24 24" fill="none" xmlns="http://www.w3.org/2000/svg">
<path d="M21.0009 11.5H4.20789L10.3549 5.35402C10.4488 5.26013 10.5015 5.1328 10.5015 5.00002C10.5015 4.86725 10.4488 4.73991 10.3549 4.64602C10.261 4.55213 10.1337 4.49939 10.0009 4.49939C9.86812 4.49939 9.74078 4.55213 9.64689 4.64602L2.64689 11.646C2.60033 11.6925 2.56339 11.7476 2.53818 11.8084C2.51297 11.8691 2.5 11.9343 2.5 12C2.5 12.0658 2.51297 12.1309 2.53818 12.1917C2.56339 12.2524 2.60033 12.3076 2.64689 12.354L9.64689 19.354C9.74078 19.4479 9.86812 19.5007 10.0009 19.5007C10.1337 19.5007 10.261 19.4479 10.3549 19.354C10.4488 19.2601 10.5015 19.1328 10.5015 19C10.5015 18.8672 10.4488 18.7399 10.3549 18.646L4.20789 12.5H21.0009C21.1335 12.5 21.2607 12.4473 21.3544 12.3536C21.4482 12.2598 21.5009 12.1326 21.5009 12C21.5009 11.8674 21.4482 11.7402 21.3544 11.6465C21.2607 11.5527 21.1335 11.5 21.0009 11.5Z" fill="white"/>
</svg>
