<svg width="20" height="20" viewBox="0 0 20 20" fill="none" xmlns="http://www.w3.org/2000/svg">
<g clip-path="url(#clip0_2818_636)">
<path d="M19.1642 19.1667V12.4521C19.1642 9.15216 18.4538 6.63135 14.6038 6.63135C12.7476 6.63135 11.5101 7.63967 11.006 8.60216H10.9601V6.92926H7.31641V19.1667H11.1205V13.0938C11.1205 11.4896 11.4185 9.95424 13.3893 9.95424C15.3372 9.95424 15.3601 11.7646 15.3601 13.1855V19.1437H19.1642V19.1667Z" fill="black"/>
<path d="M1.13086 6.9292H4.93499V19.1666H1.13086V6.9292Z" fill="black"/>
<path d="M3.03201 0.833496C1.81744 0.833496 0.832031 1.8189 0.832031 3.03348C0.832031 4.24805 1.81744 5.25637 3.03201 5.25637C4.24658 5.25637 5.23199 4.24805 5.23199 3.03348C5.23199 1.8189 4.24658 0.833496 3.03201 0.833496Z" fill="black"/>
</g>
<defs>
<clipPath id="clip0_2818_636">
<rect width="20" height="20" fill="white" transform="translate(-0.00195312)"/>
</clipPath>
</defs>
</svg>
