<svg width="15" height="15" viewBox="0 0 15 15" fill="none" xmlns="http://www.w3.org/2000/svg">
<mask id="mask0_108_1973" style="mask-type:luminance" maskUnits="userSpaceOnUse" x="0" y="0" width="15" height="15">
<path d="M0 -9.53674e-07H14.6667V14.6667H0V-9.53674e-07Z" fill="white"/>
</mask>
<g mask="url(#mask0_108_1973)">
<path d="M7.33334 14.237C5.61459 11.6589 2.60678 8.16406 2.60678 5.15625C2.60678 2.55002 4.72712 0.429687 7.33334 0.429687C9.93957 0.429687 12.0599 2.55002 12.0599 5.15625C12.0599 8.16406 9.05209 11.6589 7.33334 14.237Z" stroke="#707070" stroke-miterlimit="10" stroke-linecap="round" stroke-linejoin="round"/>
<path d="M7.33334 7.30485C6.14875 7.30485 5.18491 6.341 5.18491 5.15641C5.18491 3.97182 6.14875 3.00797 7.33334 3.00797C8.51793 3.00797 9.48178 3.97182 9.48178 5.15641C9.48178 6.341 8.51793 7.30485 7.33334 7.30485Z" stroke="#707070" stroke-miterlimit="10" stroke-linecap="round" stroke-linejoin="round"/>
</g>
</svg>
