<svg width="64" height="64" viewBox="0 0 64 64" fill="none" xmlns="http://www.w3.org/2000/svg">
<path d="M40.7783 33.3063C40.2687 33.5806 39.7453 33.832 39.2082 34.0592C36.9233 35.0255 34.4981 35.5156 32 35.5156C29.5019 35.5156 27.0767 35.0255 24.7918 34.0591C24.2547 33.832 23.7312 33.5805 23.2217 33.3062C10.9364 37.0601 2 48.4858 2 62H13.2034C13.2034 51.6188 21.6189 43.2033 32 43.2033C42.3811 43.2033 50.7966 51.6188 50.7966 62H62C62 48.4858 53.0636 37.0601 40.7783 33.3063Z" fill="#1C1B1B"/>
<path d="M32.0003 50.7129C25.7665 50.7129 20.7129 55.7664 20.7129 62.0003H43.2875C43.2877 55.7665 38.2341 50.7129 32.0003 50.7129Z" fill="#1C1B1B"/>
<path d="M32 32C40.2843 32 47 25.2843 47 17C47 8.71573 40.2843 2 32 2C23.7157 2 17 8.71573 17 17C17 25.2843 23.7157 32 32 32Z" fill="#1C1B1B"/>
</svg>
