<svg width="64" height="64" viewBox="0 0 64 64" fill="none" xmlns="http://www.w3.org/2000/svg">
<path d="M20.3098 15.1091C14.7941 18.2901 10.6572 23.4952 9.06056 29.7848C8.91541 30.4355 9.49602 31.0861 10.1492 30.9416C10.875 30.7247 11.6733 30.5801 12.4716 30.5078C13.3425 30.4355 14.0683 29.8571 14.3586 29.0619C15.5924 25.8087 17.6971 22.9169 20.3824 20.8204C21.3259 20.0974 22.7048 20.242 23.4306 21.1818C25.3901 23.8567 28.5835 25.5918 32.1397 25.5918C38.3086 25.5918 43.3164 20.4589 43.0261 14.2416C42.8083 8.96409 37.9458 4.19267 32.7203 3.97579C26.9142 3.68661 22.0516 7.95198 21.3985 13.5186C21.2533 14.1693 20.8904 14.8199 20.3098 15.1091Z" fill="black"/>
<path d="M3.04122 47.0222C3.114 52.4438 7.48073 57.0704 12.8664 57.5764C14.7586 57.7932 16.5781 57.4318 18.1792 56.7089C18.8343 56.4197 19.562 56.4198 20.1443 56.7812C23.6377 58.8053 27.7861 59.9619 32.1528 59.9619C34.1906 59.9619 36.2284 59.6728 38.1207 59.1667C38.994 58.9499 39.3579 57.9378 38.7029 57.2872C38.2662 56.7812 37.8296 56.2752 37.4657 55.7691C36.9562 55.0463 36.1557 54.7571 35.2823 54.9017C34.2634 55.0463 33.1717 55.1908 32.08 55.1908C29.6055 55.1908 27.2766 54.6848 25.0932 53.8173C24.0016 53.3836 23.4921 52.0824 23.9288 50.9981C24.5838 49.6969 24.8749 48.3234 24.8749 46.8053C24.8749 40.8053 19.9987 35.9619 13.9581 35.9619C7.84463 35.9619 2.89566 40.9499 3.04122 47.0222Z" fill="black"/>
<path d="M32.0381 29.9619C35.3634 29.9619 38.0381 32.6366 38.0381 35.9619C38.0381 39.2872 35.3634 41.9619 32.0381 41.9619C28.7128 41.9619 26.0381 39.2872 26.0381 35.9619C26.0381 32.6366 28.7128 29.9619 32.0381 29.9619Z" fill="black"/>
<path d="M57.3601 55.0152C61.9024 51.9095 63.3676 45.7701 60.7302 41.0031C59.851 39.3418 58.5323 38.0417 57.067 37.1028C56.4809 36.7416 56.0413 36.0916 56.0413 35.4415C55.8215 31.3968 54.5028 27.352 52.0119 23.7406C50.8397 22.0072 49.5209 20.5626 47.9824 19.2625C47.323 18.6847 46.2241 18.9736 46.0043 19.8404C45.8578 20.4904 45.638 21.0682 45.4182 21.7183C45.1252 22.5128 45.2717 23.3795 45.8578 24.0296C46.5904 24.7518 47.2498 25.6186 47.9092 26.4853C49.3011 28.5077 50.1803 30.7467 50.6931 32.9858C50.9129 34.1414 50.107 35.2971 48.9348 35.5138C47.5428 35.8027 46.1508 36.3083 44.9054 37.175C39.8502 40.4975 38.5315 47.2147 41.9016 52.1984C45.3449 57.1821 52.3049 58.4822 57.3601 55.0152Z" fill="black"/>
</svg>
