<svg width="20" height="20" viewBox="0 0 20 20" fill="none" xmlns="http://www.w3.org/2000/svg">
<path d="M16.0419 10.4382C15.8762 10.4382 15.7172 10.504 15.6 10.6212C15.4828 10.7384 15.417 10.8973 15.417 11.0631V13.5786C15.4164 14.0644 15.2232 14.5302 14.8796 14.8738C14.5361 15.2173 14.0703 15.4106 13.5844 15.4111H6.42611C5.94026 15.4106 5.47447 15.2173 5.13092 14.8738C4.78737 14.5302 4.59412 14.0644 4.59357 13.5786V6.42025C4.59412 5.9344 4.78737 5.46861 5.13092 5.12506C5.47447 4.78151 5.94026 4.58826 6.42611 4.58771H8.94163C9.10737 4.58771 9.26632 4.52187 9.38351 4.40468C9.5007 4.28748 9.56654 4.12854 9.56654 3.9628C9.56654 3.79706 9.5007 3.63812 9.38351 3.52092C9.26632 3.40373 9.10737 3.33789 8.94163 3.33789H6.42611C5.60892 3.33886 4.82547 3.66391 4.24762 4.24176C3.66977 4.81961 3.34471 5.60306 3.34375 6.42025V13.5786C3.34471 14.3958 3.66977 15.1792 4.24762 15.7571C4.82547 16.3349 5.60892 16.66 6.42611 16.6609H13.5844C14.4016 16.66 15.1851 16.3349 15.7629 15.7571C16.3408 15.1792 16.6658 14.3958 16.6668 13.5786V11.0631C16.6668 10.8973 16.601 10.7384 16.4838 10.6212C16.3666 10.504 16.2076 10.4382 16.0419 10.4382Z" fill="#1C1B1B"/>
<path d="M16.0276 3.33398H12.1428C11.9792 3.33395 11.822 3.39811 11.7052 3.51267C11.5883 3.62723 11.5211 3.78305 11.5179 3.94666C11.5114 4.29739 11.8064 4.5838 12.1569 4.5838H14.5349L9.55802 9.56224C9.44083 9.67944 9.375 9.83838 9.375 10.0041C9.375 10.1698 9.44083 10.3288 9.55802 10.446C9.67521 10.5632 9.83415 10.629 9.99988 10.629C10.1656 10.629 10.3245 10.5632 10.4417 10.446L15.4202 5.46909V7.85572C15.4202 8.02146 15.486 8.18041 15.6032 8.2976C15.7204 8.41479 15.8794 8.48063 16.0451 8.48063C16.2108 8.48063 16.3698 8.41479 16.487 8.2976C16.6042 8.18041 16.67 8.02146 16.67 7.85572V3.97608C16.67 3.89174 16.6534 3.80822 16.6211 3.7303C16.5888 3.65238 16.5415 3.58158 16.4818 3.52196C16.4222 3.46233 16.3514 3.41504 16.2734 3.38279C16.1955 3.35053 16.112 3.33395 16.0276 3.33398Z" fill="#1C1B1B"/>
</svg>
