<svg width="21" height="21" viewBox="0 0 21 21" fill="none" xmlns="http://www.w3.org/2000/svg">
<path d="M18.9747 17.7336L15.7321 14.5173C16.9908 12.9479 17.6003 10.9559 17.4354 8.95096C17.2705 6.94599 16.3436 5.0804 14.8455 3.73781C13.3473 2.39521 11.3916 1.67765 9.38064 1.73268C7.36965 1.78771 5.45617 2.61114 4.03366 4.03366C2.61114 5.45617 1.78771 7.36965 1.73268 9.38064C1.67765 11.3916 2.39521 13.3473 3.73781 14.8455C5.0804 16.3436 6.94599 17.2705 8.95096 17.4354C10.9559 17.6003 12.9479 16.9908 14.5173 15.7321L17.7336 18.9485C17.8149 19.0304 17.9115 19.0954 18.018 19.1398C18.1245 19.1842 18.2388 19.207 18.3541 19.207C18.4695 19.207 18.5838 19.1842 18.6903 19.1398C18.7968 19.0954 18.8934 19.0304 18.9747 18.9485C19.1322 18.7855 19.2203 18.5677 19.2203 18.341C19.2203 18.1144 19.1322 17.8966 18.9747 17.7336ZM9.61407 15.7321C8.40403 15.7321 7.22117 15.3733 6.21506 14.701C5.20895 14.0288 4.42479 13.0733 3.96173 11.9553C3.49867 10.8374 3.37751 9.60728 3.61357 8.4205C3.84964 7.23371 4.43233 6.14358 5.28795 5.28795C6.14358 4.43233 7.23371 3.84964 8.4205 3.61357C9.60728 3.37751 10.8374 3.49867 11.9553 3.96173C13.0733 4.42479 14.0288 5.20895 14.701 6.21506C15.3733 7.22117 15.7321 8.40403 15.7321 9.61407C15.7321 11.2367 15.0875 12.7928 13.9402 13.9402C12.7928 15.0875 11.2367 15.7321 9.61407 15.7321Z" fill="#1C1B1B"/>
</svg>
